<svg xmlns="http://www.w3.org/2000/svg" xmlns:xlink="http://www.w3.org/1999/xlink" width="460" zoomAndPan="magnify" viewBox="0 0 345 58.499998" height="78" preserveAspectRatio="xMidYMid meet" version="1.0"><defs><g/><clipPath id="62ca018af1"><path d="M 1.460938 0 L 100 0 L 100 58.003906 L 1.460938 58.003906 Z M 1.460938 0 " clip-rule="nonzero"/></clipPath></defs><g clip-path="url(#62ca018af1)"><path stroke-linecap="butt" transform="matrix(0.695061, 0, 0, 0.695061, 2.053989, 6.181087)" fill="none" stroke-linejoin="miter" d="M 37.5708 38.697404 C 38.711662 38.697404 39.700785 39.107665 40.532547 39.928187 C 41.375549 40.737469 41.79705 41.715352 41.79705 42.856215 C 41.79705 43.991458 41.375549 44.97496 40.532547 45.817962 C 39.700785 46.649724 38.711662 47.065605 37.5708 47.065605 L 36.885158 47.065605 L 36.885158 48.644829 L 37.239219 49.459732 C 37.413439 49.869993 37.503359 50.347694 37.503359 50.892835 C 37.503359 52.022458 37.093098 53.01158 36.272576 53.854583 C 35.463294 54.697585 34.462932 55.119086 33.277109 55.119086 C 31.872105 55.119086 30.720002 54.478404 29.83204 53.202661 C 28.960938 51.932538 28.522577 50.431994 28.522577 48.71227 L 28.522577 47.065605 L 20.952418 47.065605 C 20.716377 48.167128 20.440996 49.319231 20.120656 50.527534 C 19.805935 51.724597 19.654194 52.348419 19.654194 52.387759 C 19.378814 53.618542 18.985413 54.551464 18.490851 55.186526 C 17.99067 55.815968 17.220728 56.130688 16.175406 56.130688 C 15.590924 56.130688 15.090743 56.046388 14.680482 55.866548 C 13.815 56.456649 13.129358 56.74889 12.634797 56.74889 C 12.044695 56.74889 11.600714 56.490369 11.302853 55.967708 C 11.016233 55.445047 10.707132 54.686345 10.386791 53.685982 C 10.296871 53.320681 10.251911 52.88794 10.251911 52.387759 C 10.251911 48.75161 11.454594 41.383771 13.86558 30.278623 C 16.270946 19.167855 18.198611 12.182177 19.654194 9.32159 C 19.884615 8.366188 20.351076 7.596246 21.047958 7.006144 C 21.7617 6.421663 22.660902 6.123802 23.745565 6.123802 C 24.200786 6.123802 24.700967 6.191242 25.240488 6.326123 C 26.061011 4.915499 27.269314 4.212997 28.854158 4.212997 C 31.669785 4.212997 33.080408 6.118182 33.080408 9.934172 L 33.96275 17.15589 C 34.547232 21.966622 35.142953 26.766114 35.738675 31.543126 L 36.621017 38.697404 Z M 22.930663 38.697404 L 28.235956 38.697404 C 27.696435 31.880327 27.196253 27.243815 26.741032 24.793489 L 25.92613 25.338631 C 25.83621 25.793852 24.835847 30.250523 22.930663 38.697404 Z M 75.989217 45.919123 C 77.35488 48.004148 78.034902 49.566512 78.034902 50.611834 C 78.034902 51.752697 77.635881 52.7362 76.837839 53.556722 C 76.051037 54.366004 75.090014 54.770645 73.960391 54.770645 C 72.229427 54.770645 70.953684 54.017563 70.133162 52.522639 C 67.963836 48.70665 65.738311 43.463176 63.462205 36.7866 C 63.321705 36.286418 63.096904 35.561436 62.799043 34.606034 C 62.512423 33.650632 62.276382 32.92565 62.102162 32.425468 C 62.467462 40.96789 62.647303 46.829565 62.647303 50.010493 C 62.647303 51.230036 62.225802 52.230398 61.3828 53.00596 C 60.539798 53.770282 59.370835 54.152443 57.875911 54.152443 C 55.470545 54.062523 53.970001 53.090261 53.38552 51.224416 C 53.059559 50.229673 52.857238 49.594612 52.767318 49.330471 C 51.716375 47.324126 50.755353 43.390116 49.889871 37.534061 C 49.035629 31.678007 48.608507 26.726774 48.608507 22.680364 C 48.608507 17.953932 48.990668 14.019922 49.75499 10.883954 C 50.401292 8.298748 50.811553 6.444143 50.985773 5.3089 C 51.176854 4.302917 51.677035 3.459915 52.486317 2.779894 C 53.306839 2.105492 54.234142 1.768291 55.279464 1.768291 C 57.010429 1.768291 58.235592 2.583193 58.954954 4.212997 C 59.966556 4.443418 60.787078 4.982939 61.41652 5.825941 C 62.051581 6.657703 62.321342 7.596246 62.231422 8.635948 L 62.102162 10.001612 C 62.057201 10.501793 62.034721 11.951757 62.034721 14.362743 C 62.253902 14.092982 62.636063 13.654621 63.181204 13.04766 C 63.726346 12.423838 64.063546 12.047297 64.198427 11.918037 C 64.338927 11.783156 64.597448 11.519016 64.962749 11.131235 C 65.32805 10.743454 65.62029 10.462453 65.845091 10.282613 C 66.075512 10.097152 66.367752 9.844251 66.727433 9.535151 C 67.092734 9.21481 67.502995 8.871989 67.958216 8.506688 C 68.733778 7.916587 69.621741 7.624346 70.616483 7.624346 C 71.791066 7.624346 72.780188 8.012127 73.578231 8.787689 C 74.376273 9.552011 74.775294 10.552373 74.775294 11.783156 C 74.775294 13.14882 74.247012 14.233483 73.19607 15.042765 C 71.341465 16.593889 70.234322 17.622351 69.869021 18.122532 C 69.50372 18.577754 68.823699 19.347695 67.823336 20.432358 C 68.233597 21.10676 68.435918 21.859842 68.435918 22.680364 C 68.435918 23.309805 68.480878 23.877427 68.570798 24.377608 C 69.026019 26.513214 70.172502 30.301103 72.015867 35.735657 C 73.853611 41.158971 75.179935 44.553459 75.989217 45.919123 Z M 116.324058 56.068868 C 116.324058 57.254691 115.925037 58.238194 115.126995 59.024996 C 114.340193 59.828658 113.351071 60.227679 112.165248 60.227679 C 111.400926 60.227679 110.782724 60.098418 110.305023 59.845518 C 109.827322 59.598237 109.450781 59.305996 109.16978 58.963175 C 108.8944 58.614735 108.354878 57.850413 107.556836 56.66459 C 106.770034 55.490007 106.016952 54.405344 105.297591 53.404981 C 104.477069 52.320319 103.257525 50.353314 101.638961 47.515207 C 100.026017 44.677099 98.907634 42.507774 98.278193 41.01285 L 97.463291 41.411871 C 97.463291 42.142473 97.547591 43.777897 97.727431 46.318144 C 97.907272 50.319594 97.991572 52.528259 97.991572 52.93852 C 97.991572 54.349144 97.845452 55.259586 97.541971 55.669847 C 97.25535 56.068868 96.637149 56.265569 95.681746 56.265569 C 95.501906 56.265569 95.187185 56.220609 94.731964 56.130688 C 94.231783 56.265569 93.776562 56.333009 93.3663 56.333009 C 91.826417 56.333009 90.376453 55.287686 89.010789 53.202661 C 87.645126 51.117636 86.611043 48.71227 85.897302 45.986563 C 85.20042 43.255236 84.851979 40.731849 84.851979 38.416404 C 84.851979 31.874707 84.964379 26.743634 85.18356 23.028805 C 85.18356 21.477681 85.44208 18.577754 85.964742 14.329023 C 86.487403 10.080292 86.931384 7.528806 87.296685 6.674563 C 88.336388 4.404078 89.769491 3.263215 91.590376 3.263215 C 92.084937 3.263215 92.630079 3.381235 93.22018 3.611656 C 93.815902 3.836456 94.276743 4.173657 94.597084 4.628878 C 97.772392 4.628878 99.969817 4.814339 101.18936 5.17964 C 102.420143 5.533701 103.785807 6.326123 105.297591 7.556906 C 108.467279 10.187072 110.052123 13.727681 110.052123 18.184353 C 110.052123 20.96064 109.759882 23.085005 109.16978 24.557449 C 108.585299 26.035512 106.972355 28.97478 104.330948 33.375251 C 107.646757 41.237651 110.557924 46.689065 113.06445 49.729492 C 115.239396 52.8205 116.324058 54.933625 116.324058 56.068868 Z M 101.20622 22.612924 C 101.526561 22.022822 101.683921 21.13486 101.683921 19.949037 L 101.683921 18.184353 C 101.683921 17.864012 101.638961 17.386311 101.537801 16.756869 C 101.537801 16.666949 101.526561 16.554548 101.504081 16.425288 C 101.481601 16.279168 101.447881 16.161147 101.402921 16.076847 C 100.857779 15.076485 100.385698 14.396463 99.975437 14.025542 L 96.845089 12.317058 C 96.479788 16.088087 96.294328 19.403896 96.294328 22.264483 C 96.294328 23.129965 96.339288 24.742909 96.429208 27.103315 C 97.06427 26.839174 97.867932 26.271553 98.840194 25.406071 C 99.829317 24.540589 100.616119 23.607666 101.20622 22.612924 Z M 101.20622 22.612924 " stroke="#000000" stroke-width="4.216552" stroke-opacity="1" stroke-miterlimit="4"/></g><g fill="#000000" fill-opacity="1"><g transform="translate(90.382154, 45.104476)"><g><path d="M 24.25 0.046875 C 24.25 0.867188 23.972656 1.554688 23.421875 2.109375 C 22.867188 2.660156 22.179688 2.9375 21.359375 2.9375 C 20.816406 2.9375 20.378906 2.847656 20.046875 2.671875 C 19.722656 2.503906 19.460938 2.300781 19.265625 2.0625 C 19.078125 1.820312 18.707031 1.289062 18.15625 0.46875 C 17.601562 -0.34375 17.078125 -1.097656 16.578125 -1.796875 C 16.003906 -2.554688 15.15625 -3.921875 14.03125 -5.890625 C 12.914062 -7.867188 12.140625 -9.378906 11.703125 -10.421875 L 11.125 -10.140625 C 11.125 -9.628906 11.1875 -8.488281 11.3125 -6.71875 C 11.445312 -3.945312 11.515625 -2.414062 11.515625 -2.125 C 11.515625 -1.144531 11.410156 -0.515625 11.203125 -0.234375 C 10.992188 0.046875 10.554688 0.1875 9.890625 0.1875 C 9.765625 0.1875 9.546875 0.15625 9.234375 0.09375 C 8.890625 0.1875 8.570312 0.234375 8.28125 0.234375 C 7.207031 0.234375 6.195312 -0.488281 5.25 -1.9375 C 4.3125 -3.394531 3.597656 -5.066406 3.109375 -6.953125 C 2.617188 -8.847656 2.375 -10.601562 2.375 -12.21875 C 2.375 -16.757812 2.453125 -20.328125 2.609375 -22.921875 C 2.609375 -23.992188 2.785156 -26.003906 3.140625 -28.953125 C 3.503906 -31.910156 3.816406 -33.6875 4.078125 -34.28125 C 4.796875 -35.863281 5.789062 -36.65625 7.0625 -36.65625 C 7.40625 -36.65625 7.78125 -36.578125 8.1875 -36.421875 C 8.601562 -36.265625 8.921875 -36.023438 9.140625 -35.703125 C 11.347656 -35.703125 12.878906 -35.578125 13.734375 -35.328125 C 14.585938 -35.078125 15.535156 -34.523438 16.578125 -33.671875 C 18.785156 -31.835938 19.890625 -29.375 19.890625 -26.28125 C 19.890625 -24.351562 19.679688 -22.875 19.265625 -21.84375 C 18.859375 -20.820312 17.738281 -18.78125 15.90625 -15.71875 C 18.21875 -10.257812 20.238281 -6.472656 21.96875 -4.359375 C 23.488281 -2.210938 24.25 -0.742188 24.25 0.046875 Z M 13.734375 -23.203125 C 13.953125 -23.617188 14.0625 -24.234375 14.0625 -25.046875 L 14.0625 -26.28125 C 14.0625 -26.5 14.03125 -26.832031 13.96875 -27.28125 C 13.96875 -27.34375 13.957031 -27.421875 13.9375 -27.515625 C 13.925781 -27.609375 13.90625 -27.6875 13.875 -27.75 C 13.5 -28.445312 13.164062 -28.921875 12.875 -29.171875 L 10.703125 -30.359375 C 10.453125 -27.734375 10.328125 -25.425781 10.328125 -23.4375 C 10.328125 -22.84375 10.359375 -21.722656 10.421875 -20.078125 C 10.859375 -20.265625 11.414062 -20.660156 12.09375 -21.265625 C 12.78125 -21.867188 13.328125 -22.515625 13.734375 -23.203125 Z M 13.734375 -23.203125 "/></g></g></g><g fill="#000000" fill-opacity="1"><g transform="translate(116.993418, 45.104476)"><g><path d="M 9.65625 -33.953125 C 9.0625 -34.460938 8.398438 -34.71875 7.671875 -34.71875 C 6.941406 -34.71875 6.289062 -34.457031 5.71875 -33.9375 C 5.15625 -33.414062 4.84375 -32.789062 4.78125 -32.0625 C 4.75 -31.6875 4.6875 -31.398438 4.59375 -31.203125 C 3.613281 -27.671875 3 -24.972656 2.75 -23.109375 C 2.5 -21.242188 2.375 -18.453125 2.375 -14.734375 L 2.375 -5.6875 C 2.375 -4.414062 2.640625 -3.414062 3.171875 -2.6875 C 3.710938 -1.96875 4.457031 -1.609375 5.40625 -1.609375 C 6.1875 -1.609375 6.863281 -1.894531 7.4375 -2.46875 C 8.320312 -1.363281 9.285156 -0.617188 10.328125 -0.234375 C 11.367188 0.140625 12.835938 0.328125 14.734375 0.328125 C 15.960938 0.328125 17.003906 0.0507812 17.859375 -0.5 C 18.710938 -1.050781 19.140625 -1.847656 19.140625 -2.890625 C 19.140625 -3.742188 18.835938 -4.4375 18.234375 -4.96875 C 17.628906 -5.507812 16.9375 -5.78125 16.15625 -5.78125 C 15.707031 -5.78125 15.296875 -5.6875 14.921875 -5.5 C 13.910156 -5.5 13.023438 -5.578125 12.265625 -5.734375 C 12.265625 -6.359375 12.253906 -7.097656 12.234375 -7.953125 C 12.222656 -8.804688 12.21875 -9.375 12.21875 -9.65625 C 12.21875 -10.226562 12.25 -11.679688 12.3125 -14.015625 L 14.546875 -14.015625 C 15.328125 -14.015625 16 -14.296875 16.5625 -14.859375 C 17.132812 -15.429688 17.421875 -16.113281 17.421875 -16.90625 C 17.421875 -17.695312 17.132812 -18.382812 16.5625 -18.96875 C 16 -19.550781 15.328125 -19.84375 14.546875 -19.84375 L 12.640625 -19.84375 C 12.898438 -23.976562 13.109375 -26.804688 13.265625 -28.328125 L 14.59375 -28.03125 C 15.46875 -27.8125 16.351562 -27.597656 17.25 -27.390625 C 18.15625 -27.191406 18.59375 -27.09375 18.5625 -27.09375 C 19.320312 -27.09375 19.992188 -27.359375 20.578125 -27.890625 C 21.160156 -28.429688 21.453125 -29.128906 21.453125 -29.984375 C 21.453125 -30.609375 21.269531 -31.171875 20.90625 -31.671875 C 20.539062 -32.179688 20.0625 -32.546875 19.46875 -32.765625 C 19.113281 -32.898438 18.632812 -33.035156 18.03125 -33.171875 C 17.4375 -33.316406 16.640625 -33.488281 15.640625 -33.6875 C 14.648438 -33.894531 13.78125 -34.09375 13.03125 -34.28125 C 12.300781 -34.445312 11.8125 -34.53125 11.5625 -34.53125 C 11.019531 -34.53125 10.570312 -34.429688 10.21875 -34.234375 C 9.875 -34.046875 9.6875 -33.953125 9.65625 -33.953125 Z M 9.65625 -33.953125 "/></g></g></g><g fill="#000000" fill-opacity="1"><g transform="translate(140.810971, 45.104476)"><g><path d="M 18.375 -30.265625 C 18.375 -31.742188 17.316406 -32.957031 15.203125 -33.90625 C 13.972656 -34.445312 12.773438 -34.71875 11.609375 -34.71875 C 9.992188 -34.71875 8.679688 -34.003906 7.671875 -32.578125 C 7.296875 -32.734375 6.929688 -32.8125 6.578125 -32.8125 C 5.441406 -32.8125 4.457031 -32.148438 3.625 -30.828125 C 2.789062 -29.503906 2.375 -28.210938 2.375 -26.953125 C 2.375 -26.316406 2.457031 -25.628906 2.625 -24.890625 C 2.800781 -24.148438 2.988281 -23.519531 3.1875 -23 C 3.394531 -22.476562 3.664062 -21.804688 4 -20.984375 C 4.332031 -20.160156 4.5625 -19.578125 4.6875 -19.234375 C 5.132812 -17.929688 5.53125 -16.984375 5.875 -16.390625 C 7.957031 -12.253906 9.296875 -9.332031 9.890625 -7.625 C 10.242188 -6.800781 10.421875 -5.929688 10.421875 -5.015625 C 10.421875 -4.296875 10.359375 -3.554688 10.234375 -2.796875 C 9.691406 -3.296875 9.023438 -3.546875 8.234375 -3.546875 C 7.390625 -3.546875 6.695312 -3.242188 6.15625 -2.640625 C 5.625 -2.046875 5.359375 -1.367188 5.359375 -0.609375 C 5.359375 0.523438 5.894531 1.46875 6.96875 2.21875 C 8.039062 2.976562 9.300781 3.359375 10.75 3.359375 C 13.875 3.359375 15.941406 2.628906 16.953125 1.171875 C 17.960938 -0.273438 18.46875 -2.75 18.46875 -6.25 C 18.46875 -10.164062 17 -15.582031 14.0625 -22.5 C 13.5625 -23.632812 13.226562 -24.414062 13.0625 -24.84375 C 12.90625 -25.269531 12.753906 -25.820312 12.609375 -26.5 C 12.472656 -27.175781 12.40625 -27.910156 12.40625 -28.703125 C 12.75 -28.578125 13.003906 -28.453125 13.171875 -28.328125 C 14.046875 -27.691406 14.785156 -27.375 15.390625 -27.375 C 16.242188 -27.375 16.953125 -27.65625 17.515625 -28.21875 C 18.085938 -28.789062 18.375 -29.472656 18.375 -30.265625 Z M 18.375 -30.265625 "/></g></g></g><g fill="#000000" fill-opacity="1"><g transform="translate(161.645414, 45.104476)"><g><path d="M 5.359375 -27.75 C 5.796875 -27.75 6.21875 -27.859375 6.625 -28.078125 C 7.507812 -28.460938 7.953125 -28.5625 7.953125 -28.375 C 7.921875 -27.957031 7.90625 -27.320312 7.90625 -26.46875 C 7.90625 -24.445312 8 -22.585938 8.1875 -20.890625 C 8.757812 -15.109375 9.09375 -9.03125 9.1875 -2.65625 C 9.1875 -1.894531 9.4375 -1.238281 9.9375 -0.6875 C 10.445312 -0.132812 11.066406 0.1875 11.796875 0.28125 C 12.015625 0.789062 12.375 1.21875 12.875 1.5625 C 13.382812 1.90625 13.921875 2.078125 14.484375 2.078125 C 15.273438 2.078125 15.953125 1.785156 16.515625 1.203125 C 17.085938 0.617188 17.375 -0.0664062 17.375 -0.859375 C 17.375 -1.078125 17.3125 -3.515625 17.1875 -8.171875 C 17.0625 -12.828125 17 -17.175781 17 -21.21875 C 17 -24.0625 17.15625 -26.585938 17.46875 -28.796875 L 19.515625 -28.609375 C 19.515625 -28.578125 19.75 -28.6875 20.21875 -28.9375 C 20.695312 -29.1875 21.179688 -29.546875 21.671875 -30.015625 C 22.160156 -30.492188 22.40625 -30.972656 22.40625 -31.453125 C 22.40625 -32.804688 21.859375 -33.671875 20.765625 -34.046875 C 19.679688 -34.429688 17.875 -34.625 15.34375 -34.625 L 12.6875 -34.625 C 11.207031 -34.625 9.914062 -34.570312 8.8125 -34.46875 C 7.707031 -34.375 6.632812 -34.191406 5.59375 -33.921875 C 4.550781 -33.660156 3.753906 -33.257812 3.203125 -32.71875 C 2.648438 -32.1875 2.375 -31.507812 2.375 -30.6875 C 2.375 -29.832031 2.671875 -29.128906 3.265625 -28.578125 C 3.867188 -28.023438 4.566406 -27.75 5.359375 -27.75 Z M 5.359375 -27.75 "/></g></g></g><g fill="#000000" fill-opacity="1"><g transform="translate(186.409989, 45.104476)"><g><path d="M 21.359375 -12.03125 C 22.148438 -12.03125 22.835938 -11.742188 23.421875 -11.171875 C 24.003906 -10.609375 24.296875 -9.929688 24.296875 -9.140625 C 24.296875 -8.347656 24.003906 -7.660156 23.421875 -7.078125 C 22.835938 -6.492188 22.148438 -6.203125 21.359375 -6.203125 L 20.890625 -6.203125 L 20.890625 -5.109375 L 21.125 -4.546875 C 21.25 -4.265625 21.3125 -3.929688 21.3125 -3.546875 C 21.3125 -2.765625 21.023438 -2.078125 20.453125 -1.484375 C 19.890625 -0.898438 19.195312 -0.609375 18.375 -0.609375 C 17.394531 -0.609375 16.597656 -1.050781 15.984375 -1.9375 C 15.367188 -2.820312 15.0625 -3.863281 15.0625 -5.0625 L 15.0625 -6.203125 L 9.796875 -6.203125 C 9.640625 -5.441406 9.453125 -4.644531 9.234375 -3.8125 C 9.015625 -2.976562 8.90625 -2.546875 8.90625 -2.515625 C 8.71875 -1.660156 8.445312 -1.007812 8.09375 -0.5625 C 7.75 -0.125 7.210938 0.09375 6.484375 0.09375 C 6.078125 0.09375 5.734375 0.03125 5.453125 -0.09375 C 4.847656 0.3125 4.375 0.515625 4.03125 0.515625 C 3.613281 0.515625 3.300781 0.335938 3.09375 -0.015625 C 2.894531 -0.378906 2.6875 -0.910156 2.46875 -1.609375 C 2.40625 -1.859375 2.375 -2.160156 2.375 -2.515625 C 2.375 -5.035156 3.207031 -10.15625 4.875 -17.875 C 6.550781 -25.59375 7.894531 -30.445312 8.90625 -32.4375 C 9.0625 -33.101562 9.382812 -33.640625 9.875 -34.046875 C 10.363281 -34.460938 10.988281 -34.671875 11.75 -34.671875 C 12.0625 -34.671875 12.40625 -34.625 12.78125 -34.53125 C 13.351562 -35.507812 14.191406 -36 15.296875 -36 C 17.253906 -36 18.234375 -34.671875 18.234375 -32.015625 L 18.84375 -27 C 19.257812 -23.644531 19.671875 -20.3125 20.078125 -17 L 20.703125 -12.03125 Z M 11.171875 -12.03125 L 14.875 -12.03125 C 14.488281 -16.769531 14.140625 -19.988281 13.828125 -21.6875 L 13.265625 -21.3125 C 13.203125 -21 12.503906 -17.90625 11.171875 -12.03125 Z M 11.171875 -12.03125 "/></g></g></g><g fill="#000000" fill-opacity="1"><g transform="translate(213.068608, 45.104476)"><g><path d="M 12.3125 1.328125 C 12.882812 1.546875 13.546875 1.65625 14.296875 1.65625 C 15.628906 1.65625 16.785156 1.179688 17.765625 0.234375 C 18.742188 -0.710938 19.5 -2.019531 20.03125 -3.6875 C 20.570312 -5.363281 20.957031 -7.164062 21.1875 -9.09375 C 21.425781 -11.019531 21.546875 -13.101562 21.546875 -15.34375 C 21.546875 -18.15625 21.578125 -21.691406 21.640625 -25.953125 C 21.703125 -30.210938 21.734375 -32.769531 21.734375 -33.625 C 21.734375 -34.445312 21.457031 -35.140625 20.90625 -35.703125 C 20.351562 -36.273438 19.664062 -36.5625 18.84375 -36.5625 C 18.03125 -36.5625 17.335938 -36.273438 16.765625 -35.703125 C 16.191406 -35.140625 15.90625 -34.445312 15.90625 -33.625 C 15.90625 -31.664062 15.875 -29.984375 15.8125 -28.578125 C 15.75 -27.171875 15.71875 -25.929688 15.71875 -24.859375 L 15.71875 -12.921875 C 15.71875 -11.378906 15.597656 -10.085938 15.359375 -9.046875 C 15.128906 -8.003906 14.664062 -6.519531 13.96875 -4.59375 C 12.550781 -6.800781 11.84375 -9.925781 11.84375 -13.96875 C 11.84375 -18.800781 11.859375 -22.859375 11.890625 -26.140625 C 11.921875 -29.421875 11.9375 -31.535156 11.9375 -32.484375 C 11.9375 -33.273438 11.679688 -33.925781 11.171875 -34.4375 C 11.015625 -35.09375 10.660156 -35.625 10.109375 -36.03125 C 9.554688 -36.445312 8.976562 -36.65625 8.375 -36.65625 C 7.175781 -36.65625 6.160156 -35.972656 5.328125 -34.609375 C 4.492188 -33.253906 3.867188 -31.410156 3.453125 -29.078125 C 3.046875 -26.742188 2.765625 -24.421875 2.609375 -22.109375 C 2.453125 -19.804688 2.375 -17.316406 2.375 -14.640625 L 2.375 -11.3125 C 2.375 -9.351562 2.515625 -7.953125 2.796875 -7.109375 C 3.390625 -4.890625 4.5 -2.859375 6.125 -1.015625 C 7.757812 0.828125 9.363281 1.75 10.9375 1.75 C 11.382812 1.75 11.84375 1.609375 12.3125 1.328125 Z M 12.3125 1.328125 "/></g></g></g><g fill="#000000" fill-opacity="1"><g transform="translate(237.170269, 45.104476)"><g><path d="M 24.25 0.046875 C 24.25 0.867188 23.972656 1.554688 23.421875 2.109375 C 22.867188 2.660156 22.179688 2.9375 21.359375 2.9375 C 20.816406 2.9375 20.378906 2.847656 20.046875 2.671875 C 19.722656 2.503906 19.460938 2.300781 19.265625 2.0625 C 19.078125 1.820312 18.707031 1.289062 18.15625 0.46875 C 17.601562 -0.34375 17.078125 -1.097656 16.578125 -1.796875 C 16.003906 -2.554688 15.15625 -3.921875 14.03125 -5.890625 C 12.914062 -7.867188 12.140625 -9.378906 11.703125 -10.421875 L 11.125 -10.140625 C 11.125 -9.628906 11.1875 -8.488281 11.3125 -6.71875 C 11.445312 -3.945312 11.515625 -2.414062 11.515625 -2.125 C 11.515625 -1.144531 11.410156 -0.515625 11.203125 -0.234375 C 10.992188 0.046875 10.554688 0.1875 9.890625 0.1875 C 9.765625 0.1875 9.546875 0.15625 9.234375 0.09375 C 8.890625 0.1875 8.570312 0.234375 8.28125 0.234375 C 7.207031 0.234375 6.195312 -0.488281 5.25 -1.9375 C 4.3125 -3.394531 3.597656 -5.066406 3.109375 -6.953125 C 2.617188 -8.847656 2.375 -10.601562 2.375 -12.21875 C 2.375 -16.757812 2.453125 -20.328125 2.609375 -22.921875 C 2.609375 -23.992188 2.785156 -26.003906 3.140625 -28.953125 C 3.503906 -31.910156 3.816406 -33.6875 4.078125 -34.28125 C 4.796875 -35.863281 5.789062 -36.65625 7.0625 -36.65625 C 7.40625 -36.65625 7.78125 -36.578125 8.1875 -36.421875 C 8.601562 -36.265625 8.921875 -36.023438 9.140625 -35.703125 C 11.347656 -35.703125 12.878906 -35.578125 13.734375 -35.328125 C 14.585938 -35.078125 15.535156 -34.523438 16.578125 -33.671875 C 18.785156 -31.835938 19.890625 -29.375 19.890625 -26.28125 C 19.890625 -24.351562 19.679688 -22.875 19.265625 -21.84375 C 18.859375 -20.820312 17.738281 -18.78125 15.90625 -15.71875 C 18.21875 -10.257812 20.238281 -6.472656 21.96875 -4.359375 C 23.488281 -2.210938 24.25 -0.742188 24.25 0.046875 Z M 13.734375 -23.203125 C 13.953125 -23.617188 14.0625 -24.234375 14.0625 -25.046875 L 14.0625 -26.28125 C 14.0625 -26.5 14.03125 -26.832031 13.96875 -27.28125 C 13.96875 -27.34375 13.957031 -27.421875 13.9375 -27.515625 C 13.925781 -27.609375 13.90625 -27.6875 13.875 -27.75 C 13.5 -28.445312 13.164062 -28.921875 12.875 -29.171875 L 10.703125 -30.359375 C 10.453125 -27.734375 10.328125 -25.425781 10.328125 -23.4375 C 10.328125 -22.84375 10.359375 -21.722656 10.421875 -20.078125 C 10.859375 -20.265625 11.414062 -20.660156 12.09375 -21.265625 C 12.78125 -21.867188 13.328125 -22.515625 13.734375 -23.203125 Z M 13.734375 -23.203125 "/></g></g></g><g fill="#000000" fill-opacity="1"><g transform="translate(263.781533, 45.104476)"><g><path d="M 21.359375 -12.03125 C 22.148438 -12.03125 22.835938 -11.742188 23.421875 -11.171875 C 24.003906 -10.609375 24.296875 -9.929688 24.296875 -9.140625 C 24.296875 -8.347656 24.003906 -7.660156 23.421875 -7.078125 C 22.835938 -6.492188 22.148438 -6.203125 21.359375 -6.203125 L 20.890625 -6.203125 L 20.890625 -5.109375 L 21.125 -4.546875 C 21.25 -4.265625 21.3125 -3.929688 21.3125 -3.546875 C 21.3125 -2.765625 21.023438 -2.078125 20.453125 -1.484375 C 19.890625 -0.898438 19.195312 -0.609375 18.375 -0.609375 C 17.394531 -0.609375 16.597656 -1.050781 15.984375 -1.9375 C 15.367188 -2.820312 15.0625 -3.863281 15.0625 -5.0625 L 15.0625 -6.203125 L 9.796875 -6.203125 C 9.640625 -5.441406 9.453125 -4.644531 9.234375 -3.8125 C 9.015625 -2.976562 8.90625 -2.546875 8.90625 -2.515625 C 8.71875 -1.660156 8.445312 -1.007812 8.09375 -0.5625 C 7.75 -0.125 7.210938 0.09375 6.484375 0.09375 C 6.078125 0.09375 5.734375 0.03125 5.453125 -0.09375 C 4.847656 0.3125 4.375 0.515625 4.03125 0.515625 C 3.613281 0.515625 3.300781 0.335938 3.09375 -0.015625 C 2.894531 -0.378906 2.6875 -0.910156 2.46875 -1.609375 C 2.40625 -1.859375 2.375 -2.160156 2.375 -2.515625 C 2.375 -5.035156 3.207031 -10.15625 4.875 -17.875 C 6.550781 -25.59375 7.894531 -30.445312 8.90625 -32.4375 C 9.0625 -33.101562 9.382812 -33.640625 9.875 -34.046875 C 10.363281 -34.460938 10.988281 -34.671875 11.75 -34.671875 C 12.0625 -34.671875 12.40625 -34.625 12.78125 -34.53125 C 13.351562 -35.507812 14.191406 -36 15.296875 -36 C 17.253906 -36 18.234375 -34.671875 18.234375 -32.015625 L 18.84375 -27 C 19.257812 -23.644531 19.671875 -20.3125 20.078125 -17 L 20.703125 -12.03125 Z M 11.171875 -12.03125 L 14.875 -12.03125 C 14.488281 -16.769531 14.140625 -19.988281 13.828125 -21.6875 L 13.265625 -21.3125 C 13.203125 -21 12.503906 -17.90625 11.171875 -12.03125 Z M 11.171875 -12.03125 "/></g></g></g><g fill="#000000" fill-opacity="1"><g transform="translate(290.440163, 45.104476)"><g><path d="M 18 -16 C 17.8125 -16.351562 17.613281 -16.84375 17.40625 -17.46875 C 17.195312 -18.101562 16.96875 -18.882812 16.71875 -19.8125 C 16.46875 -20.75 16.28125 -21.421875 16.15625 -21.828125 C 16.019531 -22.273438 15.828125 -22.894531 15.578125 -23.6875 C 15.234375 -24.851562 14.972656 -25.710938 14.796875 -26.265625 C 14.628906 -26.816406 14.398438 -27.484375 14.109375 -28.265625 C 13.828125 -29.054688 13.59375 -29.609375 13.40625 -29.921875 C 13.21875 -30.242188 12.988281 -30.585938 12.71875 -30.953125 C 12.445312 -31.316406 12.171875 -31.5625 11.890625 -31.6875 C 11.609375 -31.8125 11.289062 -31.875 10.9375 -31.875 C 10.6875 -31.875 10.5 -31.859375 10.375 -31.828125 C 10.375 -32.929688 9.992188 -33.835938 9.234375 -34.546875 C 8.472656 -35.253906 7.601562 -35.609375 6.625 -35.609375 C 5.84375 -35.609375 5.164062 -35.300781 4.59375 -34.6875 C 4.019531 -34.070312 3.734375 -33.351562 3.734375 -32.53125 L 3.890625 -31.109375 C 3.890625 -30.359375 3.757812 -29.234375 3.5 -27.734375 C 3.25 -26.234375 3 -23.984375 2.75 -20.984375 C 2.5 -17.984375 2.375 -14.253906 2.375 -9.796875 C 2.375 -8.128906 2.453125 -6.898438 2.609375 -6.109375 C 2.765625 -5.316406 3.15625 -4.367188 3.78125 -3.265625 L 3.78125 -2.421875 C 3.78125 -1.691406 4.023438 -1.113281 4.515625 -0.6875 C 5.003906 -0.257812 5.519531 -0.046875 6.0625 -0.046875 C 6.46875 -0.046875 6.863281 -0.140625 7.25 -0.328125 C 7.75 0.078125 8.347656 0.28125 9.046875 0.28125 C 9.898438 0.28125 10.59375 -0.015625 11.125 -0.609375 C 11.664062 -1.210938 11.9375 -2.019531 11.9375 -3.03125 C 11.9375 -3.976562 11.800781 -6.234375 11.53125 -9.796875 C 11.257812 -13.367188 11.125 -15.519531 11.125 -16.25 L 11.75 -16.578125 L 14.109375 -10.609375 C 14.203125 -10.265625 14.453125 -9.648438 14.859375 -8.765625 C 15.273438 -7.878906 15.53125 -7.242188 15.625 -6.859375 C 16.164062 -5.066406 16.75 -3.554688 17.375 -2.328125 L 17.375 -2.265625 C 17.4375 -1.066406 17.832031 -0.140625 18.5625 0.515625 C 19.007812 0.898438 19.4375 1.09375 19.84375 1.09375 C 21.070312 1.09375 22.066406 0.601562 22.828125 -0.375 C 23.585938 -1.351562 24.03125 -2.601562 24.15625 -4.125 C 24.34375 -6.644531 24.4375 -10.195312 24.4375 -14.78125 C 24.4375 -21.71875 24.753906 -27.617188 25.390625 -32.484375 C 25.390625 -33.304688 25.117188 -34.015625 24.578125 -34.609375 C 24.046875 -35.210938 23.367188 -35.515625 22.546875 -35.515625 C 21.910156 -35.515625 21.332031 -35.328125 20.8125 -34.953125 C 20.289062 -34.578125 19.921875 -34.070312 19.703125 -33.4375 C 19.421875 -32.519531 19.296875 -31.742188 19.328125 -31.109375 C 19.003906 -29.023438 18.765625 -24.023438 18.609375 -16.109375 Z M 18 -16 "/></g></g></g><g fill="#000000" fill-opacity="1"><g transform="translate(318.187859, 45.104476)"><g><path d="M 5.359375 -27.75 C 5.796875 -27.75 6.21875 -27.859375 6.625 -28.078125 C 7.507812 -28.460938 7.953125 -28.5625 7.953125 -28.375 C 7.921875 -27.957031 7.90625 -27.320312 7.90625 -26.46875 C 7.90625 -24.445312 8 -22.585938 8.1875 -20.890625 C 8.757812 -15.109375 9.09375 -9.03125 9.1875 -2.65625 C 9.1875 -1.894531 9.4375 -1.238281 9.9375 -0.6875 C 10.445312 -0.132812 11.066406 0.1875 11.796875 0.28125 C 12.015625 0.789062 12.375 1.21875 12.875 1.5625 C 13.382812 1.90625 13.921875 2.078125 14.484375 2.078125 C 15.273438 2.078125 15.953125 1.785156 16.515625 1.203125 C 17.085938 0.617188 17.375 -0.0664062 17.375 -0.859375 C 17.375 -1.078125 17.3125 -3.515625 17.1875 -8.171875 C 17.0625 -12.828125 17 -17.175781 17 -21.21875 C 17 -24.0625 17.15625 -26.585938 17.46875 -28.796875 L 19.515625 -28.609375 C 19.515625 -28.578125 19.75 -28.6875 20.21875 -28.9375 C 20.695312 -29.1875 21.179688 -29.546875 21.671875 -30.015625 C 22.160156 -30.492188 22.40625 -30.972656 22.40625 -31.453125 C 22.40625 -32.804688 21.859375 -33.671875 20.765625 -34.046875 C 19.679688 -34.429688 17.875 -34.625 15.34375 -34.625 L 12.6875 -34.625 C 11.207031 -34.625 9.914062 -34.570312 8.8125 -34.46875 C 7.707031 -34.375 6.632812 -34.191406 5.59375 -33.921875 C 4.550781 -33.660156 3.753906 -33.257812 3.203125 -32.71875 C 2.648438 -32.1875 2.375 -31.507812 2.375 -30.6875 C 2.375 -29.832031 2.671875 -29.128906 3.265625 -28.578125 C 3.867188 -28.023438 4.566406 -27.75 5.359375 -27.75 Z M 5.359375 -27.75 "/></g></g></g></svg>