<svg xmlns="http://www.w3.org/2000/svg" xmlns:xlink="http://www.w3.org/1999/xlink" width="1071" zoomAndPan="magnify" viewBox="0 0 803.25 95.999999" height="128" preserveAspectRatio="xMidYMid meet" version="1.0"><defs><g/><clipPath id="97a5cebfe6"><path d="M 0 0.0429688 L 206 0.0429688 L 206 93 L 0 93 Z M 0 0.0429688 " clip-rule="nonzero"/></clipPath></defs><g fill="#000000" fill-opacity="1"><g transform="translate(206.398541, 75.973855)"><g><path d="M 56.03125 -2.5625 C 56.132812 -2.34375 56.1875 -2.046875 56.1875 -1.671875 C 56.1875 -1.191406 56.039062 -0.789062 55.75 -0.46875 C 55.457031 -0.15625 55.070312 0 54.59375 0 L 39.078125 0 C 37.960938 0 37.242188 -0.554688 36.921875 -1.671875 L 29.40625 -22.296875 C 29.25 -22.722656 28.984375 -23.039062 28.609375 -23.25 C 28.234375 -23.46875 27.675781 -23.578125 26.9375 -23.578125 L 23.25 -23.578125 C 22.9375 -23.578125 22.695312 -23.46875 22.53125 -23.25 C 22.375 -23.039062 22.296875 -22.859375 22.296875 -22.703125 L 22.296875 -2.3125 C 22.296875 -1.457031 22.082031 -0.859375 21.65625 -0.515625 C 21.226562 -0.171875 20.5625 0 19.65625 0 L 6.234375 0 C 5.429688 0 4.882812 -0.15625 4.59375 -0.46875 C 4.300781 -0.789062 4.15625 -1.300781 4.15625 -2 L 4.15625 -57.46875 C 4.15625 -58.6875 4.660156 -59.296875 5.671875 -59.296875 L 32.375 -59.296875 C 40.09375 -59.296875 46.082031 -57.816406 50.34375 -54.859375 C 54.613281 -51.910156 56.75 -47.742188 56.75 -42.359375 C 56.75 -38.679688 55.773438 -35.40625 53.828125 -32.53125 C 51.878906 -29.65625 49.363281 -27.628906 46.28125 -26.453125 C 45.957031 -26.296875 45.796875 -26.03125 45.796875 -25.65625 C 45.796875 -25.5 45.847656 -25.257812 45.953125 -24.9375 Z M 31.65625 -35.484375 C 33.675781 -35.484375 35.234375 -36.003906 36.328125 -37.046875 C 37.421875 -38.085938 37.96875 -39.484375 37.96875 -41.234375 C 37.96875 -43.210938 37.3125 -44.742188 36 -45.828125 C 34.695312 -46.921875 33.085938 -47.46875 31.171875 -47.46875 L 24.140625 -47.46875 C 23.441406 -47.46875 22.957031 -47.347656 22.6875 -47.109375 C 22.425781 -46.867188 22.296875 -46.457031 22.296875 -45.875 L 22.296875 -37.15625 C 22.296875 -36.570312 22.390625 -36.144531 22.578125 -35.875 C 22.765625 -35.613281 23.125 -35.484375 23.65625 -35.484375 Z M 31.65625 -35.484375 "/></g></g></g><g fill="#000000" fill-opacity="1"><g transform="translate(265.457657, 75.973855)"><g><path d="M 4.15625 -57.46875 C 4.15625 -58.6875 4.660156 -59.296875 5.671875 -59.296875 L 48.828125 -59.296875 C 49.785156 -59.296875 50.265625 -58.738281 50.265625 -57.625 L 50.1875 -48.359375 C 50.1875 -46.910156 49.492188 -46.1875 48.109375 -46.1875 L 24.140625 -46.1875 C 22.910156 -46.1875 22.296875 -45.679688 22.296875 -44.671875 L 22.296875 -37.890625 C 22.296875 -37.347656 22.425781 -36.929688 22.6875 -36.640625 C 22.957031 -36.347656 23.304688 -36.203125 23.734375 -36.203125 L 38.125 -36.203125 C 39.238281 -36.203125 39.796875 -35.671875 39.796875 -34.609375 L 39.796875 -24.703125 C 39.796875 -23.796875 39.316406 -23.34375 38.359375 -23.34375 L 23.578125 -23.34375 C 23.203125 -23.34375 22.894531 -23.234375 22.65625 -23.015625 C 22.414062 -22.804688 22.296875 -22.539062 22.296875 -22.21875 L 22.296875 -14.21875 C 22.296875 -13.800781 22.363281 -13.507812 22.5 -13.34375 C 22.632812 -13.1875 22.882812 -13.109375 23.25 -13.109375 L 49.234375 -13.109375 C 50.398438 -13.109375 50.984375 -12.601562 50.984375 -11.59375 L 50.984375 -1.765625 C 50.984375 -1.222656 50.820312 -0.789062 50.5 -0.46875 C 50.1875 -0.15625 49.710938 0 49.078125 0 L 6.3125 0 C 5.507812 0 4.945312 -0.15625 4.625 -0.46875 C 4.3125 -0.789062 4.15625 -1.300781 4.15625 -2 Z M 4.15625 -57.46875 "/></g></g></g><g fill="#000000" fill-opacity="1"><g transform="translate(319.082378, 75.973855)"><g><path d="M 39.484375 -43.390625 C 38.203125 -44.773438 36.828125 -45.84375 35.359375 -46.59375 C 33.898438 -47.34375 31.785156 -47.71875 29.015625 -47.71875 C 26.242188 -47.71875 24.191406 -47.316406 22.859375 -46.515625 C 21.523438 -45.710938 20.859375 -44.753906 20.859375 -43.640625 C 20.859375 -41.722656 22.5625 -40.363281 25.96875 -39.5625 L 39.234375 -36.125 C 44.085938 -34.894531 47.738281 -32.75 50.1875 -29.6875 C 52.644531 -26.625 53.875 -22.960938 53.875 -18.703125 C 53.875 -14.753906 52.832031 -11.316406 50.75 -8.390625 C 48.675781 -5.460938 45.707031 -3.195312 41.84375 -1.59375 C 37.976562 0 33.460938 0.796875 28.296875 0.796875 C 22.429688 0.796875 17.085938 -0.171875 12.265625 -2.109375 C 7.441406 -4.054688 4.097656 -6.601562 2.234375 -9.75 C 1.972656 -10.28125 1.84375 -10.679688 1.84375 -10.953125 C 1.84375 -11.484375 2.132812 -11.960938 2.71875 -12.390625 L 10.953125 -18.0625 C 11.535156 -18.4375 12.066406 -18.625 12.546875 -18.625 C 13.128906 -18.625 13.609375 -18.382812 13.984375 -17.90625 C 15.796875 -15.5625 17.632812 -13.910156 19.5 -12.953125 C 21.363281 -11.992188 23.84375 -11.515625 26.9375 -11.515625 C 29.914062 -11.515625 32.269531 -11.925781 34 -12.75 C 35.738281 -13.570312 36.609375 -14.703125 36.609375 -16.140625 C 36.609375 -17.148438 36.179688 -18.03125 35.328125 -18.78125 C 34.472656 -19.53125 33.21875 -20.085938 31.5625 -20.453125 L 19.421875 -23.421875 C 14.628906 -24.585938 10.816406 -26.78125 7.984375 -30 C 5.160156 -33.226562 3.75 -36.945312 3.75 -41.15625 C 3.75 -44.625 4.757812 -47.804688 6.78125 -50.703125 C 8.8125 -53.609375 11.691406 -55.898438 15.421875 -57.578125 C 19.148438 -59.253906 23.46875 -60.09375 28.375 -60.09375 C 33.164062 -60.09375 37.613281 -59.304688 41.71875 -57.734375 C 45.820312 -56.171875 48.78125 -54.082031 50.59375 -51.46875 C 50.96875 -50.988281 51.15625 -50.535156 51.15625 -50.109375 C 51.15625 -49.734375 50.96875 -49.390625 50.59375 -49.078125 L 41.875 -42.765625 C 41.613281 -42.546875 41.320312 -42.4375 41 -42.4375 C 40.625 -42.4375 40.117188 -42.753906 39.484375 -43.390625 Z M 39.484375 -43.390625 "/></g></g></g><g fill="#000000" fill-opacity="1"><g transform="translate(375.104629, 75.973855)"><g><path d="M 2.234375 -57.46875 C 2.234375 -58 2.40625 -58.4375 2.75 -58.78125 C 3.101562 -59.125 3.597656 -59.296875 4.234375 -59.296875 L 52.03125 -59.296875 C 52.664062 -59.296875 53.15625 -59.125 53.5 -58.78125 C 53.851562 -58.4375 54.03125 -58 54.03125 -57.46875 L 54.03125 -47.953125 C 54.03125 -46.941406 53.441406 -46.4375 52.265625 -46.4375 L 38.125 -46.4375 C 37.476562 -46.4375 37.15625 -46.171875 37.15625 -45.640625 L 37.15625 -1.765625 C 37.15625 -1.171875 37.019531 -0.726562 36.75 -0.4375 C 36.488281 -0.144531 36.117188 0 35.640625 0 L 20.453125 0 C 19.492188 0 19.015625 -0.53125 19.015625 -1.59375 L 19.015625 -45.3125 C 19.015625 -46.0625 18.722656 -46.4375 18.140625 -46.4375 L 4.078125 -46.4375 C 2.847656 -46.4375 2.234375 -46.941406 2.234375 -47.953125 Z M 2.234375 -57.46875 "/></g></g></g><g fill="#000000" fill-opacity="1"><g transform="translate(431.36664, 75.973855)"><g><path d="M 3.4375 0 C 3.007812 0 2.660156 -0.144531 2.390625 -0.4375 C 2.128906 -0.726562 2 -1.140625 2 -1.671875 C 2 -2.046875 2.078125 -2.472656 2.234375 -2.953125 L 21.578125 -57.46875 C 21.847656 -58.15625 22.140625 -58.628906 22.453125 -58.890625 C 22.773438 -59.160156 23.285156 -59.296875 23.984375 -59.296875 L 39.71875 -59.296875 C 40.363281 -59.296875 40.9375 -59.097656 41.4375 -58.703125 C 41.945312 -58.304688 42.332031 -57.785156 42.59375 -57.140625 L 61.78125 -2.71875 C 61.882812 -2.289062 61.9375 -1.972656 61.9375 -1.765625 C 61.9375 -1.273438 61.828125 -0.859375 61.609375 -0.515625 C 61.398438 -0.171875 61.082031 0 60.65625 0 L 45 0 C 44.09375 0 43.503906 -0.453125 43.234375 -1.359375 L 40.125 -10.546875 C 39.957031 -10.921875 39.804688 -11.175781 39.671875 -11.3125 C 39.546875 -11.445312 39.296875 -11.515625 38.921875 -11.515625 L 21.984375 -11.515625 C 21.335938 -11.515625 20.9375 -11.21875 20.78125 -10.625 L 17.5 -1.203125 C 17.175781 -0.398438 16.535156 0 15.578125 0 Z M 34.921875 -25.09375 C 35.515625 -25.09375 35.8125 -25.359375 35.8125 -25.890625 C 35.8125 -25.992188 35.753906 -26.257812 35.640625 -26.6875 L 30.84375 -40.359375 C 30.738281 -40.628906 30.578125 -40.765625 30.359375 -40.765625 C 30.148438 -40.765625 29.992188 -40.628906 29.890625 -40.359375 L 25.015625 -26.78125 C 24.910156 -26.5625 24.859375 -26.289062 24.859375 -25.96875 C 24.859375 -25.382812 25.175781 -25.09375 25.8125 -25.09375 Z M 34.921875 -25.09375 "/></g></g></g><g fill="#000000" fill-opacity="1"><g transform="translate(495.220804, 75.973855)"><g><path d="M 54.671875 -23.421875 C 54.671875 -14.679688 52.457031 -8.457031 48.03125 -4.75 C 43.613281 -1.050781 37.300781 0.796875 29.09375 0.796875 C 19.875 0.796875 13.304688 -1.332031 9.390625 -5.59375 C 5.472656 -9.851562 3.515625 -16.328125 3.515625 -25.015625 L 3.515625 -57.46875 C 3.515625 -58.050781 3.644531 -58.5 3.90625 -58.8125 C 4.175781 -59.132812 4.550781 -59.296875 5.03125 -59.296875 L 20.21875 -59.296875 C 21.175781 -59.296875 21.65625 -58.738281 21.65625 -57.625 L 21.65625 -23.09375 C 21.65625 -19.15625 22.414062 -16.304688 23.9375 -14.546875 C 25.457031 -12.785156 27.628906 -11.90625 30.453125 -11.90625 C 33.222656 -11.90625 35.457031 -12.785156 37.15625 -14.546875 C 38.863281 -16.304688 39.71875 -19.238281 39.71875 -23.34375 L 39.71875 -57.46875 C 39.71875 -58.6875 40.222656 -59.296875 41.234375 -59.296875 L 53.234375 -59.296875 C 54.191406 -59.296875 54.671875 -58.738281 54.671875 -57.625 Z M 54.671875 -23.421875 "/></g></g></g><g fill="#000000" fill-opacity="1"><g transform="translate(553.400838, 75.973855)"><g><path d="M 56.03125 -2.5625 C 56.132812 -2.34375 56.1875 -2.046875 56.1875 -1.671875 C 56.1875 -1.191406 56.039062 -0.789062 55.75 -0.46875 C 55.457031 -0.15625 55.070312 0 54.59375 0 L 39.078125 0 C 37.960938 0 37.242188 -0.554688 36.921875 -1.671875 L 29.40625 -22.296875 C 29.25 -22.722656 28.984375 -23.039062 28.609375 -23.25 C 28.234375 -23.46875 27.675781 -23.578125 26.9375 -23.578125 L 23.25 -23.578125 C 22.9375 -23.578125 22.695312 -23.46875 22.53125 -23.25 C 22.375 -23.039062 22.296875 -22.859375 22.296875 -22.703125 L 22.296875 -2.3125 C 22.296875 -1.457031 22.082031 -0.859375 21.65625 -0.515625 C 21.226562 -0.171875 20.5625 0 19.65625 0 L 6.234375 0 C 5.429688 0 4.882812 -0.15625 4.59375 -0.46875 C 4.300781 -0.789062 4.15625 -1.300781 4.15625 -2 L 4.15625 -57.46875 C 4.15625 -58.6875 4.660156 -59.296875 5.671875 -59.296875 L 32.375 -59.296875 C 40.09375 -59.296875 46.082031 -57.816406 50.34375 -54.859375 C 54.613281 -51.910156 56.75 -47.742188 56.75 -42.359375 C 56.75 -38.679688 55.773438 -35.40625 53.828125 -32.53125 C 51.878906 -29.65625 49.363281 -27.628906 46.28125 -26.453125 C 45.957031 -26.296875 45.796875 -26.03125 45.796875 -25.65625 C 45.796875 -25.5 45.847656 -25.257812 45.953125 -24.9375 Z M 31.65625 -35.484375 C 33.675781 -35.484375 35.234375 -36.003906 36.328125 -37.046875 C 37.421875 -38.085938 37.96875 -39.484375 37.96875 -41.234375 C 37.96875 -43.210938 37.3125 -44.742188 36 -45.828125 C 34.695312 -46.921875 33.085938 -47.46875 31.171875 -47.46875 L 24.140625 -47.46875 C 23.441406 -47.46875 22.957031 -47.347656 22.6875 -47.109375 C 22.425781 -46.867188 22.296875 -46.457031 22.296875 -45.875 L 22.296875 -37.15625 C 22.296875 -36.570312 22.390625 -36.144531 22.578125 -35.875 C 22.765625 -35.613281 23.125 -35.484375 23.65625 -35.484375 Z M 31.65625 -35.484375 "/></g></g></g><g fill="#000000" fill-opacity="1"><g transform="translate(612.459965, 75.973855)"><g><path d="M 3.4375 0 C 3.007812 0 2.660156 -0.144531 2.390625 -0.4375 C 2.128906 -0.726562 2 -1.140625 2 -1.671875 C 2 -2.046875 2.078125 -2.472656 2.234375 -2.953125 L 21.578125 -57.46875 C 21.847656 -58.15625 22.140625 -58.628906 22.453125 -58.890625 C 22.773438 -59.160156 23.285156 -59.296875 23.984375 -59.296875 L 39.71875 -59.296875 C 40.363281 -59.296875 40.9375 -59.097656 41.4375 -58.703125 C 41.945312 -58.304688 42.332031 -57.785156 42.59375 -57.140625 L 61.78125 -2.71875 C 61.882812 -2.289062 61.9375 -1.972656 61.9375 -1.765625 C 61.9375 -1.273438 61.828125 -0.859375 61.609375 -0.515625 C 61.398438 -0.171875 61.082031 0 60.65625 0 L 45 0 C 44.09375 0 43.503906 -0.453125 43.234375 -1.359375 L 40.125 -10.546875 C 39.957031 -10.921875 39.804688 -11.175781 39.671875 -11.3125 C 39.546875 -11.445312 39.296875 -11.515625 38.921875 -11.515625 L 21.984375 -11.515625 C 21.335938 -11.515625 20.9375 -11.21875 20.78125 -10.625 L 17.5 -1.203125 C 17.175781 -0.398438 16.535156 0 15.578125 0 Z M 34.921875 -25.09375 C 35.515625 -25.09375 35.8125 -25.359375 35.8125 -25.890625 C 35.8125 -25.992188 35.753906 -26.257812 35.640625 -26.6875 L 30.84375 -40.359375 C 30.738281 -40.628906 30.578125 -40.765625 30.359375 -40.765625 C 30.148438 -40.765625 29.992188 -40.628906 29.890625 -40.359375 L 25.015625 -26.78125 C 24.910156 -26.5625 24.859375 -26.289062 24.859375 -25.96875 C 24.859375 -25.382812 25.175781 -25.09375 25.8125 -25.09375 Z M 34.921875 -25.09375 "/></g></g></g><g fill="#000000" fill-opacity="1"><g transform="translate(676.314129, 75.973855)"><g><path d="M 55.46875 -59.296875 C 56.269531 -59.296875 56.671875 -58.84375 56.671875 -57.9375 L 56.671875 -1.4375 C 56.671875 -1.007812 56.492188 -0.660156 56.140625 -0.390625 C 55.796875 -0.128906 55.359375 0 54.828125 0 L 43.875 0 C 43.394531 0 43.007812 -0.078125 42.71875 -0.234375 C 42.425781 -0.398438 42.09375 -0.722656 41.71875 -1.203125 L 19.734375 -31.015625 C 19.523438 -31.273438 19.335938 -31.378906 19.171875 -31.328125 C 19.015625 -31.273438 18.9375 -31.113281 18.9375 -30.84375 L 18.9375 -1.765625 C 18.988281 -1.117188 18.867188 -0.660156 18.578125 -0.390625 C 18.285156 -0.128906 17.765625 0 17.015625 0 L 6.15625 0 C 4.820312 0 4.15625 -0.53125 4.15625 -1.59375 L 4.15625 -57.46875 C 4.15625 -58.6875 4.742188 -59.296875 5.921875 -59.296875 L 18.9375 -59.296875 C 19.632812 -59.296875 20.15625 -59.203125 20.5 -59.015625 C 20.84375 -58.835938 21.226562 -58.453125 21.65625 -57.859375 L 40.84375 -31.171875 C 41.15625 -30.691406 41.445312 -30.453125 41.71875 -30.453125 C 41.988281 -30.453125 42.125 -30.796875 42.125 -31.484375 L 42.125 -57.625 C 42.125 -58.738281 42.707031 -59.296875 43.875 -59.296875 Z M 55.46875 -59.296875 "/></g></g></g><g fill="#000000" fill-opacity="1"><g transform="translate(737.131441, 75.973855)"><g><path d="M 2.234375 -57.46875 C 2.234375 -58 2.40625 -58.4375 2.75 -58.78125 C 3.101562 -59.125 3.597656 -59.296875 4.234375 -59.296875 L 52.03125 -59.296875 C 52.664062 -59.296875 53.15625 -59.125 53.5 -58.78125 C 53.851562 -58.4375 54.03125 -58 54.03125 -57.46875 L 54.03125 -47.953125 C 54.03125 -46.941406 53.441406 -46.4375 52.265625 -46.4375 L 38.125 -46.4375 C 37.476562 -46.4375 37.15625 -46.171875 37.15625 -45.640625 L 37.15625 -1.765625 C 37.15625 -1.171875 37.019531 -0.726562 36.75 -0.4375 C 36.488281 -0.144531 36.117188 0 35.640625 0 L 20.453125 0 C 19.492188 0 19.015625 -0.53125 19.015625 -1.59375 L 19.015625 -45.3125 C 19.015625 -46.0625 18.722656 -46.4375 18.140625 -46.4375 L 4.078125 -46.4375 C 2.847656 -46.4375 2.234375 -46.941406 2.234375 -47.953125 Z M 2.234375 -57.46875 "/></g></g></g><g clip-path="url(#97a5cebfe6)"><path stroke-linecap="butt" transform="matrix(0.7493, 0, 0, 0.7493, 0.334124, 8.536824)" fill="none" stroke-linejoin="miter" d="M 12.972854 89.998401 C 12.399402 89.998401 11.930214 89.810726 11.565291 89.424949 C 11.22122 89.028746 11.049184 88.470934 11.049184 87.761939 C 11.049184 87.256259 11.158661 86.682808 11.382829 86.041585 L 37.193365 13.312279 C 37.537436 12.389543 37.928426 11.758746 38.361121 11.409462 C 38.79903 11.044538 39.471532 10.862076 40.394268 10.862076 L 61.408663 10.862076 C 62.258414 10.862076 63.024754 11.133163 63.697257 11.670122 C 64.374972 12.191441 64.891079 12.879583 65.23515 13.729334 L 90.831945 86.380442 C 90.972701 86.953894 91.040473 87.376163 91.040473 87.657675 C 91.040473 88.298899 90.90493 88.856711 90.623417 89.320685 C 90.347118 89.774233 89.919636 89.998401 89.351397 89.998401 L 68.441266 89.998401 C 67.221377 89.998401 66.444611 89.39367 66.095327 88.178995 L 61.929983 75.912344 C 61.721455 75.427516 61.523354 75.093872 61.330465 74.921836 C 61.15843 74.734161 60.824785 74.63511 60.339958 74.63511 L 37.709472 74.63511 C 36.85972 74.63511 36.333188 75.0261 36.12466 75.80808 L 31.750788 88.413589 C 31.312879 89.471868 30.463128 89.998401 29.196321 89.998401 Z M 55.001645 56.514039 C 55.783624 56.514039 56.174614 56.154328 56.174614 55.445334 C 56.174614 55.304577 56.106842 54.95008 55.966086 54.376628 L 49.559067 36.151293 C 49.423524 35.786369 49.20457 35.603907 48.907418 35.603907 C 48.631118 35.603907 48.422591 35.786369 48.281834 36.151293 L 41.775765 54.272364 C 41.635009 54.548664 41.567237 54.908374 41.567237 55.34107 C 41.567237 56.123049 41.989506 56.514039 42.839257 56.514039 Z M 173.085761 86.693234 C 173.36206 87.266686 173.497604 87.840137 173.497604 88.413589 C 173.497604 89.471868 172.85638 89.998401 171.573934 89.998401 L 150.768066 89.998401 C 148.854823 89.998401 147.582803 89.289406 146.94158 87.866203 L 133.919015 58.203115 C 133.642715 57.786059 133.361203 57.582744 133.084903 57.582744 C 132.71998 57.582744 132.219513 57.968521 131.573076 58.7505 L 123.998302 68.462686 C 123.581246 68.952726 123.372718 69.734706 123.372718 70.808624 L 123.372718 86.901762 C 123.372718 88.048665 123.085992 88.856711 122.512541 89.320685 C 121.939089 89.774233 121.052846 89.998401 119.859024 89.998401 L 102.045531 89.998401 C 100.971612 89.998401 100.215699 89.789873 99.783004 89.372817 C 99.365948 88.940122 99.15742 88.262406 99.15742 87.344884 L 99.15742 13.312279 C 99.15742 12.530299 99.329455 11.930782 99.67874 11.513726 C 100.03845 11.081031 100.54413 10.862076 101.185353 10.862076 L 121.443835 10.862076 C 122.731495 10.862076 123.372718 11.612777 123.372718 13.103751 L 123.372718 40.082043 C 123.372718 40.931794 123.544754 41.359276 123.894038 41.359276 C 124.19119 41.359276 124.545687 41.114256 124.962743 40.629429 L 144.595642 13.103751 C 145.236865 12.254 145.852022 11.670122 146.446326 11.35733 C 147.051057 11.028899 147.963367 10.862076 149.178041 10.862076 L 165.401509 10.862076 C 166.25126 10.862076 166.918549 11.028899 167.40859 11.35733 C 167.909057 11.670122 168.15929 12.10803 168.15929 12.660629 C 168.15929 13.166309 167.987255 13.599004 167.643184 13.963928 L 150.142483 35.39538 C 149.636803 35.968831 149.386569 36.568349 149.386569 37.188719 C 149.386569 37.694399 149.532539 38.231358 149.829691 38.80481 Z M 250.710258 86.58897 C 250.845802 86.86527 250.918786 87.256259 250.918786 87.761939 C 250.918786 88.403163 250.715472 88.940122 250.319269 89.372817 C 249.938705 89.789873 249.433025 89.998401 248.807442 89.998401 L 228.105838 89.998401 C 226.614864 89.998401 225.650422 89.252914 225.217727 87.761939 L 215.187537 60.236261 C 214.984222 59.66281 214.624512 59.240541 214.124045 58.959028 C 213.634004 58.682729 212.888517 58.541972 211.88237 58.541972 L 206.987179 58.541972 C 206.554483 58.541972 206.231265 58.682729 206.022737 58.959028 C 205.814209 59.240541 205.709945 59.490774 205.709945 59.714942 L 205.709945 86.901762 C 205.709945 88.048665 205.42322 88.856711 204.849768 89.320685 C 204.281529 89.774233 203.395286 89.998401 202.196251 89.998401 L 184.252428 89.998401 C 183.194149 89.998401 182.464302 89.789873 182.068099 89.372817 C 181.687535 88.940122 181.494647 88.262406 181.494647 87.344884 L 181.494647 13.312279 C 181.494647 11.680548 182.172363 10.862076 183.527794 10.862076 L 219.149566 10.862076 C 229.461269 10.862076 237.453099 12.832665 243.130271 16.773841 C 248.823081 20.715018 251.6747 26.277499 251.6747 33.466497 C 251.6747 38.382541 250.371401 42.756413 247.764802 46.593326 C 245.179057 50.430239 241.826971 53.125461 237.713759 54.68942 C 237.281064 54.913588 237.06211 55.273298 237.06211 55.758125 C 237.06211 55.966653 237.135095 56.284658 237.270638 56.722567 Z M 218.185125 42.631296 C 220.890774 42.631296 222.976053 41.948368 224.435748 40.577297 C 225.890229 39.185373 226.620077 37.313836 226.620077 34.952258 C 226.620077 32.33002 225.74426 30.29166 223.992626 28.831965 C 222.256631 27.37227 220.103581 26.642422 217.533475 26.642422 L 208.160148 26.642422 C 207.237412 26.642422 206.596189 26.809245 206.231265 27.137676 C 205.887194 27.450468 205.709945 27.997854 205.709945 28.779833 L 205.709945 40.394835 C 205.709945 41.176815 205.835062 41.750266 206.074869 42.109977 C 206.319889 42.459261 206.79429 42.631296 207.508498 42.631296 Z M 218.185125 42.631296 " stroke="#000000" stroke-width="4.000012" stroke-opacity="1" stroke-miterlimit="4"/></g></svg>