<svg xmlns="http://www.w3.org/2000/svg" xmlns:xlink="http://www.w3.org/1999/xlink" width="808" zoomAndPan="magnify" viewBox="0 0 606 191.999996" height="256" preserveAspectRatio="xMidYMid meet" version="1.0"><defs><g/></defs><path stroke-linecap="butt" transform="matrix(0.75, 0, 0, 0.75, 0.632466, 8.499975)" fill="none" stroke-linejoin="miter" d="M 86.604635 86.58858 C 86.74526 86.864622 86.812968 87.255247 86.812968 87.760455 C 86.812968 88.40108 86.615051 88.942747 86.21401 89.375039 C 85.833801 89.791706 85.328593 90.000039 84.703593 90.000039 L 64.000467 90.000039 C 62.510883 90.000039 61.547341 89.255247 61.109841 87.760455 L 51.083799 60.234412 C 50.875466 59.661495 50.521299 59.23962 50.016091 58.95837 C 49.531716 58.682329 48.786924 58.541704 47.776507 58.541704 L 42.885882 58.541704 C 42.448382 58.541704 42.130673 58.682329 41.92234 58.95837 C 41.714007 59.23962 41.60984 59.48962 41.60984 59.713579 L 41.60984 86.90108 C 41.60984 88.046914 41.323382 88.854205 40.750465 89.322955 C 40.177548 89.776081 39.292132 90.000039 38.094215 90.000039 L 20.151505 90.000039 C 19.089005 90.000039 18.359839 89.791706 17.964005 89.375039 C 17.583797 88.942747 17.391089 88.265664 17.391089 87.343789 L 17.391089 13.312534 C 17.391089 11.682326 18.068172 10.864617 19.422339 10.864617 L 55.042133 10.864617 C 65.354633 10.864617 73.349425 12.833367 79.026509 16.776076 C 84.719218 20.713576 87.568176 26.281285 87.568176 33.468785 C 87.568176 38.380244 86.266093 42.755244 83.661926 46.593786 C 81.073384 50.42712 77.724426 53.125037 73.609842 54.687537 C 73.17755 54.916703 72.9588 55.27087 72.9588 55.755245 C 72.9588 55.963578 73.031717 56.286495 73.167134 56.718787 Z M 54.078591 42.635453 C 56.786924 42.635453 58.870258 41.947953 60.328591 40.578161 C 61.786925 39.187536 62.516091 37.312536 62.516091 34.95316 C 62.516091 32.32816 61.641091 30.291702 59.885883 28.833368 C 58.151508 27.375035 56.000466 26.645868 53.427549 26.645868 L 44.057757 26.645868 C 43.135882 26.645868 42.495257 26.807327 42.130673 27.14066 C 41.781715 27.45316 41.60984 28.000035 41.60984 28.781285 L 41.60984 40.395869 C 41.60984 41.177119 41.729632 41.750036 41.974423 42.114619 C 42.214007 42.458369 42.693174 42.635453 43.406715 42.635453 Z M 96.208802 13.312534 C 96.208802 11.682326 96.885885 10.864617 98.240052 10.864617 L 155.839014 10.864617 C 157.109847 10.864617 157.740056 11.609409 157.740056 13.104201 L 157.635889 25.473993 C 157.635889 27.401077 156.719222 28.364618 154.875472 28.364618 L 122.87547 28.364618 C 121.240053 28.364618 120.427553 29.031285 120.427553 30.369827 L 120.427553 39.432327 C 120.427553 40.140661 120.599428 40.697952 120.948387 41.098994 C 121.31297 41.494828 121.78172 41.697953 122.354637 41.697953 L 141.547346 41.697953 C 143.03693 41.697953 143.78693 42.401078 143.78693 43.807328 L 143.78693 57.031287 C 143.78693 58.250037 143.141096 58.854204 141.859846 58.854204 L 122.120262 58.854204 C 121.630678 58.854204 121.224428 59.005245 120.896303 59.296912 C 120.583803 59.578162 120.427553 59.921912 120.427553 60.338579 L 120.427553 71.015663 C 120.427553 71.588579 120.510887 71.979204 120.68797 72.187538 C 120.859845 72.395871 121.198387 72.500038 121.703595 72.500038 L 156.359847 72.500038 C 157.922347 72.500038 158.703597 73.177121 158.703597 74.531288 L 158.703597 87.656289 C 158.703597 88.36983 158.490056 88.942747 158.052556 89.375039 C 157.635889 89.791706 157.005681 90.000039 156.151514 90.000039 L 99.099427 90.000039 C 98.021302 90.000039 97.266094 89.791706 96.833802 89.375039 C 96.417135 88.942747 96.208802 88.265664 96.208802 87.343789 Z M 214.906726 32.088577 C 213.208809 30.229202 211.375476 28.807327 209.411934 27.817743 C 207.469225 26.82816 204.646309 26.333368 200.948392 26.333368 C 197.250475 26.333368 194.510891 26.869827 192.724433 27.947952 C 190.953599 29.005243 190.068183 30.281285 190.068183 31.776077 C 190.068183 34.32816 192.339016 36.130244 196.885892 37.192744 L 214.594226 41.802119 C 221.073393 43.432328 225.937977 46.296911 229.203602 50.390661 C 232.484852 54.473995 234.125477 59.359412 234.125477 65.052121 C 234.125477 70.312538 232.734852 74.895871 229.95881 78.802122 C 227.182768 82.708372 223.214018 85.729205 218.057768 87.864622 C 212.901518 90.000039 206.880684 91.067747 199.98485 91.067747 C 192.156725 91.067747 185.021307 89.776081 178.583807 87.187539 C 172.156723 84.583372 167.708806 81.18233 165.224431 76.979205 C 164.859848 76.265663 164.677556 75.739621 164.677556 75.390663 C 164.677556 74.68233 165.068181 74.036496 165.849431 73.463579 L 176.839015 65.885454 C 177.620265 65.401079 178.328599 65.156287 178.974432 65.156287 C 179.755682 65.156287 180.396307 65.468787 180.901516 66.093787 C 183.312974 69.239621 185.760891 71.453163 188.245266 72.734413 C 190.745266 74.005246 194.052558 74.635455 198.161933 74.635455 C 202.156725 74.635455 205.307767 74.08858 207.615059 72.994829 C 209.927559 71.885454 211.078601 70.375038 211.078601 68.463579 C 211.078601 67.109412 210.505684 65.937537 209.359851 64.947954 C 208.234851 63.942746 206.568184 63.187537 204.35985 62.682329 L 188.141099 58.750037 C 181.750474 57.187537 176.672349 54.255245 172.906723 49.947953 C 169.13589 45.645869 167.255681 40.687536 167.255681 35.083369 C 167.255681 30.447952 168.599431 26.192743 171.29214 22.322951 C 174.000473 18.453159 177.833807 15.395868 182.802557 13.156284 C 187.781724 10.916701 193.54735 9.796909 200.089017 9.796909 C 206.495267 9.796909 212.432767 10.848992 217.901518 12.947951 C 223.370268 15.031284 227.318185 17.817743 229.750477 21.307326 C 230.234852 21.947951 230.479644 22.557326 230.479644 23.130243 C 230.479644 23.614618 230.234852 24.072951 229.750477 24.510451 L 218.109851 32.947952 C 217.766101 33.223994 217.375476 33.364619 216.937976 33.364619 C 216.453601 33.364619 215.776518 32.937535 214.906726 32.088577 Z M 239.990061 13.312534 C 239.990061 12.598992 240.214019 12.020867 240.667144 11.567742 C 241.135894 11.098992 241.797353 10.864617 242.646311 10.864617 L 306.417148 10.864617 C 307.28694 10.864617 307.94319 11.098992 308.396315 11.567742 C 308.865065 12.020867 309.09944 12.598992 309.09944 13.312534 L 309.09944 25.994827 C 309.09944 27.348993 308.31819 28.026077 306.75569 28.026077 L 287.875481 28.026077 C 287.026522 28.026077 286.599439 28.380243 286.599439 29.093785 L 286.599439 87.656289 C 286.599439 88.437539 286.417147 89.02608 286.052564 89.427122 C 285.708814 89.807331 285.214022 90.000039 284.568189 90.000039 L 264.312979 90.000039 C 263.026521 90.000039 262.385896 89.286497 262.385896 87.864622 L 262.385896 29.536493 C 262.385896 28.526077 261.995271 28.026077 261.214021 28.026077 L 242.437978 28.026077 C 240.807769 28.026077 239.990061 27.348993 239.990061 25.994827 Z M 316.661941 90.000039 C 316.089024 90.000039 315.620274 89.807331 315.255691 89.427122 C 314.911941 89.02608 314.734857 88.473997 314.734857 87.760455 C 314.734857 87.255247 314.849441 86.68233 315.073399 86.041705 L 340.880692 13.312534 C 341.229651 12.390659 341.620276 11.760451 342.052567 11.411492 C 342.484859 11.046909 343.161942 10.864617 344.083817 10.864617 L 365.099444 10.864617 C 365.948402 10.864617 366.714027 11.135451 367.39111 11.671909 C 368.068194 12.192742 368.578611 12.880242 368.927569 13.729201 L 394.526529 86.380247 C 394.661946 86.953164 394.734862 87.380247 394.734862 87.656289 C 394.734862 88.296914 394.594237 88.854205 394.318196 89.322955 C 394.036945 89.776081 393.61507 90.000039 393.042154 90.000039 L 372.130694 90.000039 C 370.911944 90.000039 370.130694 89.390664 369.786944 88.177122 L 365.620277 75.911496 C 365.411944 75.427121 365.214027 75.098996 365.021319 74.921913 C 364.849444 74.734413 364.51611 74.635455 364.031735 74.635455 L 341.401526 74.635455 C 340.552567 74.635455 340.021317 75.02608 339.812984 75.80733 L 335.437983 88.411497 C 335.005692 89.468789 334.156733 90.000039 332.8859 90.000039 Z M 358.693193 56.510453 C 359.474443 56.510453 359.865068 56.156287 359.865068 55.442745 C 359.865068 55.307328 359.79736 54.947953 359.656735 54.375037 L 353.250485 36.151077 C 353.10986 35.786494 352.896318 35.604202 352.599443 35.604202 C 352.323401 35.604202 352.115068 35.786494 351.974443 36.151077 L 345.464026 54.27087 C 345.323401 54.55212 345.255692 54.906287 345.255692 55.338578 C 345.255692 56.119828 345.682776 56.510453 346.531734 56.510453 Z M 470.266117 58.750037 C 470.266117 70.416704 467.312992 78.723996 461.41195 83.671913 C 455.505699 88.604205 447.078615 91.067747 436.12549 91.067747 C 423.818197 91.067747 415.052572 88.229205 409.823405 82.552122 C 404.599446 76.859413 401.984863 68.213579 401.984863 56.61462 L 401.984863 13.312534 C 401.984863 12.531284 402.161946 11.932326 402.505696 11.515659 C 402.870279 11.083367 403.375488 10.864617 404.016113 10.864617 L 424.276531 10.864617 C 425.562989 10.864617 426.203614 11.609409 426.203614 13.104201 L 426.203614 59.166704 C 426.203614 64.427121 427.208823 68.239621 429.224448 70.598996 C 431.255698 72.942746 434.161948 74.114621 437.948407 74.114621 C 441.646323 74.114621 444.630699 72.942746 446.90674 70.598996 C 449.177574 68.239621 450.318199 64.322954 450.318199 58.854204 L 450.318199 13.312534 C 450.318199 11.682326 450.995282 10.864617 452.349449 10.864617 L 468.339033 10.864617 C 469.620284 10.864617 470.266117 11.609409 470.266117 13.104201 Z M 549.70883 86.58858 C 549.844247 86.864622 549.917164 87.255247 549.917164 87.760455 C 549.917164 88.40108 549.714039 88.942747 549.318205 89.375039 C 548.932789 89.791706 548.432788 90.000039 547.807788 90.000039 L 527.104662 90.000039 C 525.60987 90.000039 524.646329 89.255247 524.214037 87.760455 L 514.187995 60.234412 C 513.979661 59.661495 513.625495 59.23962 513.120286 58.95837 C 512.635911 58.682329 511.885911 58.541704 510.880703 58.541704 L 505.984869 58.541704 C 505.552577 58.541704 505.229661 58.682329 505.021327 58.95837 C 504.812994 59.23962 504.708827 59.48962 504.708827 59.713579 L 504.708827 86.90108 C 504.708827 88.046914 504.422369 88.854205 503.849452 89.322955 C 503.276536 89.776081 502.391119 90.000039 501.193202 90.000039 L 483.250493 90.000039 C 482.193201 90.000039 481.464034 89.791706 481.062993 89.375039 C 480.682784 88.942747 480.490076 88.265664 480.490076 87.343789 L 480.490076 13.312534 C 480.490076 11.682326 481.167159 10.864617 482.521326 10.864617 L 518.146328 10.864617 C 528.458829 10.864617 536.453621 12.833367 542.130705 16.776076 C 547.823413 20.713576 550.672372 26.281285 550.672372 33.468785 C 550.672372 38.380244 549.370289 42.755244 546.766122 46.593786 C 544.17758 50.42712 540.828621 53.125037 536.714038 54.687537 C 536.276538 54.916703 536.062996 55.27087 536.062996 55.755245 C 536.062996 55.963578 536.130704 56.286495 536.271329 56.718787 Z M 517.182787 42.635453 C 519.89112 42.635453 521.974453 41.947953 523.432787 40.578161 C 524.89112 39.187536 525.620287 37.312536 525.620287 34.95316 C 525.620287 32.32816 524.745287 30.291702 522.990079 28.833368 C 521.255703 27.375035 519.099453 26.645868 516.531745 26.645868 L 507.156744 26.645868 C 506.234869 26.645868 505.594244 26.807327 505.229661 27.14066 C 504.880702 27.45316 504.708827 28.000035 504.708827 28.781285 L 504.708827 40.395869 C 504.708827 41.177119 504.828619 41.750036 505.073411 42.114619 C 505.318202 42.458369 505.792161 42.635453 506.505703 42.635453 Z M 558.349456 90.000039 C 557.776539 90.000039 557.307789 89.807331 556.943206 89.427122 C 556.594247 89.02608 556.422372 88.473997 556.422372 87.760455 C 556.422372 87.255247 556.531747 86.68233 556.760914 86.041705 L 582.562999 13.312534 C 582.911957 12.390659 583.302582 11.760451 583.734874 11.411492 C 584.172374 11.046909 584.849457 10.864617 585.766124 10.864617 L 606.78175 10.864617 C 607.630709 10.864617 608.396334 11.135451 609.073417 11.671909 C 609.750501 12.192742 610.260917 12.880242 610.609876 13.729201 L 636.208836 86.380247 C 636.344252 86.953164 636.417169 87.380247 636.417169 87.656289 C 636.417169 88.296914 636.276544 88.854205 636.000502 89.322955 C 635.719252 89.776081 635.297377 90.000039 634.724461 90.000039 L 613.813001 90.000039 C 612.599459 90.000039 611.818209 89.390664 611.469251 88.177122 L 607.302584 75.911496 C 607.09425 75.427121 606.896334 75.098996 606.703625 74.921913 C 606.53175 74.734413 606.198417 74.635455 605.714042 74.635455 L 583.083832 74.635455 C 582.234874 74.635455 581.703624 75.02608 581.495291 75.80733 L 577.12029 88.411497 C 576.687999 89.468789 575.83904 90.000039 574.568207 90.000039 Z M 600.3755 56.510453 C 601.15675 56.510453 601.547375 56.156287 601.547375 55.442745 C 601.547375 55.307328 601.479667 54.947953 601.339042 54.375037 L 594.932791 36.151077 C 594.797375 35.786494 594.578625 35.604202 594.28175 35.604202 C 594.005708 35.604202 593.797375 35.786494 593.65675 36.151077 L 587.146333 54.27087 C 587.010916 54.55212 586.937999 54.906287 586.937999 55.338578 C 586.937999 56.119828 587.365083 56.510453 588.214041 56.510453 Z M 713.016132 10.864617 C 714.073424 10.864617 714.604674 11.463576 714.604674 12.661492 L 714.604674 88.072955 C 714.604674 88.645872 714.370299 89.114622 713.901549 89.479206 C 713.448424 89.828164 712.86509 90.000039 712.156757 90.000039 L 697.547381 90.000039 C 696.906756 90.000039 696.385923 89.895872 695.984881 89.687539 C 695.604673 89.46358 695.161964 89.036497 694.656756 88.411497 L 665.333837 48.619828 C 665.042171 48.255245 664.786962 48.109411 664.578629 48.17712 C 664.370296 48.250036 664.266129 48.463578 664.266129 48.828161 L 664.266129 87.656289 C 664.339046 88.505247 664.172379 89.114622 663.771337 89.479206 C 663.391129 89.828164 662.698421 90.000039 661.688004 90.000039 L 647.188003 90.000039 C 645.41717 90.000039 644.531753 89.286497 644.531753 87.864622 L 644.531753 13.312534 C 644.531753 11.682326 645.313003 10.864617 646.875503 10.864617 L 664.266129 10.864617 C 665.188004 10.864617 665.875504 10.984409 666.323421 11.229201 C 666.792171 11.473992 667.313004 11.994826 667.885921 12.791701 L 693.484881 48.411495 C 693.917173 49.036495 694.307798 49.348995 694.656756 49.348995 C 695.021339 49.348995 695.203631 48.890661 695.203631 47.968786 L 695.203631 13.104201 C 695.203631 11.609409 695.984881 10.864617 697.547381 10.864617 Z M 723.141133 13.312534 C 723.141133 12.598992 723.370299 12.020867 723.818216 11.567742 C 724.286966 11.098992 724.948425 10.864617 725.797383 10.864617 L 789.573429 10.864617 C 790.438012 10.864617 791.09947 11.098992 791.552595 11.567742 C 792.021345 12.020867 792.25572 12.598992 792.25572 13.312534 L 792.25572 25.994827 C 792.25572 27.348993 791.47447 28.026077 789.91197 28.026077 L 771.031761 28.026077 C 770.177594 28.026077 769.755719 28.380243 769.755719 29.093785 L 769.755719 87.656289 C 769.755719 88.437539 769.573427 89.02608 769.208844 89.427122 C 768.859886 89.807331 768.365094 90.000039 767.724469 90.000039 L 747.464051 90.000039 C 746.177593 90.000039 745.536967 89.286497 745.536967 87.864622 L 745.536967 29.536493 C 745.536967 28.526077 745.146342 28.026077 744.365092 28.026077 L 725.58905 28.026077 C 723.958841 28.026077 723.141133 27.348993 723.141133 25.994827 Z M 723.141133 13.312534 " stroke="#000000" stroke-width="4.000012" stroke-opacity="1" stroke-miterlimit="4"/><g fill="#000000" fill-opacity="1"><g transform="translate(6.925434, 171.500015)"><g><path d="M 3.4375 0 C 3.007812 0 2.660156 -0.144531 2.390625 -0.4375 C 2.128906 -0.726562 2 -1.144531 2 -1.6875 C 2 -2.050781 2.078125 -2.472656 2.234375 -2.953125 L 21.59375 -57.515625 C 21.863281 -58.210938 22.15625 -58.691406 22.46875 -58.953125 C 22.789062 -59.222656 23.300781 -59.359375 24 -59.359375 L 39.765625 -59.359375 C 40.398438 -59.359375 40.96875 -59.15625 41.46875 -58.75 C 41.976562 -58.351562 42.367188 -57.835938 42.640625 -57.203125 L 61.84375 -2.71875 C 61.945312 -2.289062 62 -1.972656 62 -1.765625 C 62 -1.285156 61.890625 -0.867188 61.671875 -0.515625 C 61.460938 -0.171875 61.144531 0 60.71875 0 L 45.046875 0 C 44.140625 0 43.550781 -0.453125 43.28125 -1.359375 L 40.15625 -10.5625 C 40 -10.9375 39.851562 -11.1875 39.71875 -11.3125 C 39.582031 -11.445312 39.328125 -11.515625 38.953125 -11.515625 L 22 -11.515625 C 21.363281 -11.515625 20.960938 -11.222656 20.796875 -10.640625 L 17.515625 -1.203125 C 17.203125 -0.398438 16.5625 0 15.59375 0 Z M 34.953125 -25.125 C 35.546875 -25.125 35.84375 -25.390625 35.84375 -25.921875 C 35.84375 -26.023438 35.789062 -26.289062 35.6875 -26.71875 L 30.875 -40.40625 C 30.769531 -40.664062 30.609375 -40.796875 30.390625 -40.796875 C 30.179688 -40.796875 30.023438 -40.664062 29.921875 -40.40625 L 25.046875 -26.796875 C 24.929688 -26.585938 24.875 -26.320312 24.875 -26 C 24.875 -25.414062 25.195312 -25.125 25.84375 -25.125 Z M 34.953125 -25.125 "/></g></g></g><g fill="#000000" fill-opacity="1"><g transform="translate(70.839229, 171.500015)"><g><path d="M 59.59375 -2.484375 C 59.8125 -2.054688 59.921875 -1.628906 59.921875 -1.203125 C 59.921875 -0.398438 59.441406 0 58.484375 0 L 42.875 0 C 41.4375 0 40.476562 -0.53125 40 -1.59375 L 30.234375 -23.84375 C 30.023438 -24.15625 29.8125 -24.3125 29.59375 -24.3125 C 29.332031 -24.3125 28.960938 -24.019531 28.484375 -23.4375 L 22.796875 -16.15625 C 22.472656 -15.78125 22.3125 -15.195312 22.3125 -14.40625 L 22.3125 -2.3125 C 22.3125 -1.46875 22.097656 -0.867188 21.671875 -0.515625 C 21.253906 -0.171875 20.59375 0 19.6875 0 L 6.3125 0 C 5.519531 0 4.960938 -0.15625 4.640625 -0.46875 C 4.316406 -0.789062 4.15625 -1.300781 4.15625 -2 L 4.15625 -57.515625 C 4.15625 -58.109375 4.285156 -58.5625 4.546875 -58.875 C 4.816406 -59.195312 5.195312 -59.359375 5.6875 -59.359375 L 20.875 -59.359375 C 21.832031 -59.359375 22.3125 -58.800781 22.3125 -57.6875 L 22.3125 -37.4375 C 22.3125 -36.800781 22.445312 -36.484375 22.71875 -36.484375 C 22.9375 -36.484375 23.203125 -36.671875 23.515625 -37.046875 L 38.234375 -57.6875 C 38.710938 -58.320312 39.175781 -58.757812 39.625 -59 C 40.082031 -59.238281 40.769531 -59.359375 41.6875 -59.359375 L 53.84375 -59.359375 C 54.476562 -59.359375 54.984375 -59.238281 55.359375 -59 C 55.734375 -58.757812 55.921875 -58.425781 55.921875 -58 C 55.921875 -57.625 55.785156 -57.304688 55.515625 -57.046875 L 42.40625 -40.953125 C 42.03125 -40.523438 41.84375 -40.070312 41.84375 -39.59375 C 41.84375 -39.226562 41.945312 -38.832031 42.15625 -38.40625 Z M 59.59375 -2.484375 "/></g></g></g><g fill="#000000" fill-opacity="1"><g transform="translate(132.593227, 171.500015)"><g><path d="M 56.078125 -2.5625 C 56.179688 -2.34375 56.234375 -2.050781 56.234375 -1.6875 C 56.234375 -1.195312 56.085938 -0.789062 55.796875 -0.46875 C 55.503906 -0.15625 55.117188 0 54.640625 0 L 39.125 0 C 38 0 37.273438 -0.5625 36.953125 -1.6875 L 29.4375 -22.3125 C 29.28125 -22.738281 29.015625 -23.054688 28.640625 -23.265625 C 28.265625 -23.484375 27.703125 -23.59375 26.953125 -23.59375 L 23.28125 -23.59375 C 22.957031 -23.59375 22.710938 -23.484375 22.546875 -23.265625 C 22.390625 -23.054688 22.3125 -22.875 22.3125 -22.71875 L 22.3125 -2.3125 C 22.3125 -1.46875 22.097656 -0.867188 21.671875 -0.515625 C 21.253906 -0.171875 20.59375 0 19.6875 0 L 6.234375 0 C 5.441406 0 4.894531 -0.15625 4.59375 -0.46875 C 4.300781 -0.789062 4.15625 -1.300781 4.15625 -2 L 4.15625 -57.515625 C 4.15625 -58.742188 4.664062 -59.359375 5.6875 -59.359375 L 32.40625 -59.359375 C 40.132812 -59.359375 46.128906 -57.878906 50.390625 -54.921875 C 54.660156 -51.960938 56.796875 -47.789062 56.796875 -42.40625 C 56.796875 -38.71875 55.820312 -35.429688 53.875 -32.546875 C 51.925781 -29.671875 49.40625 -27.648438 46.3125 -26.484375 C 46 -26.316406 45.84375 -26.050781 45.84375 -25.6875 C 45.84375 -25.519531 45.894531 -25.273438 46 -24.953125 Z M 31.6875 -35.515625 C 33.707031 -35.515625 35.265625 -36.035156 36.359375 -37.078125 C 37.453125 -38.117188 38 -39.519531 38 -41.28125 C 38 -43.25 37.34375 -44.78125 36.03125 -45.875 C 34.726562 -46.96875 33.117188 -47.515625 31.203125 -47.515625 L 24.15625 -47.515625 C 23.46875 -47.515625 22.988281 -47.394531 22.71875 -47.15625 C 22.445312 -46.914062 22.3125 -46.503906 22.3125 -45.921875 L 22.3125 -37.203125 C 22.3125 -36.609375 22.40625 -36.175781 22.59375 -35.90625 C 22.78125 -35.644531 23.144531 -35.515625 23.6875 -35.515625 Z M 31.6875 -35.515625 "/></g></g></g></svg>