<svg xmlns="http://www.w3.org/2000/svg" xmlns:xlink="http://www.w3.org/1999/xlink" width="452" zoomAndPan="magnify" viewBox="0 0 339 57.749997" height="77" preserveAspectRatio="xMidYMid meet" version="1.0"><defs><g/><clipPath id="ac20fa1298"><path d="M 0.730469 0 L 96 0 L 96 57.5 L 0.730469 57.5 Z M 0.730469 0 " clip-rule="nonzero"/></clipPath></defs><g clip-path="url(#ac20fa1298)"><path stroke-linecap="butt" transform="matrix(0.69798, 0, 0, 0.69798, 1.429931, 5.761852)" fill="none" stroke-linejoin="miter" d="M 38.027936 45.919173 C 39.393485 48.001074 40.070663 49.568097 40.070663 50.609048 C 40.070663 51.750736 39.67331 52.735722 38.873009 53.552812 C 38.089498 54.364306 37.126898 54.767255 35.996403 54.767255 C 34.267082 54.767255 32.991077 54.022919 32.173987 52.523054 C 29.996945 48.706235 27.77513 43.462305 25.502947 36.785668 C 25.357438 36.287579 25.133577 35.560033 24.836962 34.608626 C 24.545944 33.651623 24.316487 32.924077 24.137399 32.425987 C 24.501172 40.966261 24.685857 46.825807 24.685857 50.010221 C 24.685857 51.230261 24.266118 52.226439 23.421045 53.004354 C 22.575972 53.771076 21.406302 54.151639 19.912034 54.151639 C 17.505534 54.062095 16.00567 53.088302 15.418036 51.224664 C 15.099035 50.228485 14.891964 49.59608 14.80242 49.327447 C 13.750276 47.323897 12.793273 43.38955 11.925814 37.535601 C 11.069548 31.676055 10.644213 26.72874 10.644213 22.676867 C 10.644213 17.953412 11.024776 14.024663 11.791498 10.88502 C 12.435096 8.299433 12.843642 6.441392 13.02273 5.310897 C 13.213011 4.303525 13.711101 3.458452 14.522595 2.781274 C 15.339685 2.104096 16.274302 1.768306 17.315253 1.768306 C 19.044575 1.768306 20.27021 2.585396 20.99216 4.213981 C 21.999532 4.443438 22.822219 4.986299 23.454624 5.825775 C 24.08703 6.659655 24.355663 7.594273 24.271715 8.64082 L 24.137399 10.000772 C 24.092627 10.498861 24.070241 11.953954 24.070241 14.360453 C 24.294101 14.091821 24.674664 13.655293 25.217525 13.045273 C 25.760387 12.424061 26.101774 12.049095 26.230493 11.914778 C 26.376003 11.780462 26.633442 11.523023 26.997215 11.131267 C 27.360988 10.745108 27.657603 10.459686 27.881464 10.286194 C 28.110921 10.095913 28.407536 9.849666 28.760116 9.536262 C 29.129486 9.21726 29.538031 8.870277 29.991348 8.506504 C 30.769263 7.91887 31.653512 7.622255 32.655287 7.622255 C 33.830554 7.622255 34.81554 8.014011 35.615841 8.786329 C 36.416142 9.553051 36.813494 10.54923 36.813494 11.780462 C 36.813494 13.14601 36.287422 14.231733 35.229681 15.043227 C 33.382833 16.593461 32.269128 17.623218 31.905355 18.121308 C 31.541581 18.574625 30.858807 19.346943 29.857032 20.432666 C 30.271174 21.109844 30.472648 21.859776 30.472648 22.676867 C 30.472648 23.309273 30.51742 23.87452 30.606964 24.378206 C 31.060282 26.516073 32.207566 30.30491 34.048818 35.739121 C 35.89007 41.162139 37.216442 44.553624 38.027936 45.919173 Z M 69.911253 12.463236 C 69.911253 10.325369 68.389003 8.573662 65.350098 7.208113 C 63.576004 6.441392 61.852279 6.060829 60.178923 6.060829 C 57.861968 6.060829 55.975944 7.079394 54.520851 9.12212 C 53.966797 8.887066 53.440725 8.76954 52.942635 8.76954 C 51.314051 8.76954 49.892537 9.732139 48.683691 11.651742 C 47.486038 13.554556 46.887212 15.412597 46.887212 17.22027 C 46.887212 18.132501 47.010335 19.123083 47.250985 20.197613 C 47.508424 21.266546 47.782653 22.173181 48.068075 22.92871 C 48.370287 23.673046 48.756446 24.635645 49.232149 25.822105 C 49.707853 26.997373 50.043643 27.836849 50.228328 28.334938 C 50.860734 30.198576 51.425981 31.564125 51.929667 32.425987 C 54.9238 38.369481 56.854596 42.57246 57.716458 45.034924 C 58.214548 46.210191 58.466391 47.458213 58.466391 48.778989 C 58.466391 49.81994 58.376847 50.888873 58.197758 51.974596 C 57.42544 51.252647 56.468437 50.89447 55.337942 50.89447 C 54.106709 50.89447 53.104934 51.325401 52.327019 52.19286 C 51.560297 53.04353 51.179735 54.022919 51.179735 55.119835 C 51.179735 56.748419 51.952053 58.108371 53.491093 59.194094 C 55.03573 60.29101 56.854596 60.839468 58.947691 60.839468 C 63.441688 60.839468 66.413435 59.792921 67.862931 57.69423 C 69.318023 55.612328 70.04557 52.047351 70.04557 46.999299 C 70.04557 41.363614 67.935685 33.573272 63.721513 23.628274 C 62.988371 21.994093 62.507071 20.874791 62.277614 20.264771 C 62.053754 19.643558 61.83549 18.848854 61.628419 17.869465 C 61.426944 16.895672 61.326207 15.843528 61.326207 14.707437 C 61.824297 14.886525 62.193666 15.07121 62.423123 15.261491 C 63.687934 16.168126 64.751271 16.621443 65.61873 16.621443 C 66.849963 16.621443 67.868527 16.212898 68.680021 15.390211 C 69.502708 14.57312 69.911253 13.593731 69.911253 12.463236 Z M 108.336891 56.065645 C 108.336891 57.252105 107.939539 58.242688 107.139238 59.026199 C 106.35013 59.8265 105.365144 60.223852 104.178684 60.223852 C 103.411962 60.223852 102.790749 60.100729 102.315046 59.843289 C 101.839343 59.597043 101.45878 59.306024 101.184551 58.959041 C 100.904726 58.617654 100.367461 57.850932 99.572756 56.664472 C 98.783648 55.489205 98.028119 54.403482 97.30617 53.407303 C 96.489079 52.315984 95.26904 50.357205 93.646052 47.514178 C 92.039854 44.676747 90.920552 42.510898 90.288146 41.011033 L 89.471056 41.408386 C 89.471056 42.141528 89.5606 43.775709 89.739688 46.316525 C 89.91318 50.323626 90.002724 52.528651 90.002724 52.937196 C 90.002724 54.347517 89.857215 55.254151 89.555003 55.668293 C 89.269581 56.065645 88.648369 56.26712 87.691366 56.26712 C 87.512277 56.26712 87.198873 56.222347 86.745555 56.132803 C 86.247466 56.26712 85.788552 56.334278 85.380007 56.334278 C 83.83537 56.334278 82.385874 55.28773 81.020326 53.205829 C 79.654777 51.11833 78.619423 48.711831 77.908666 45.986331 C 77.209102 43.255234 76.862119 40.731208 76.862119 38.414253 C 76.862119 31.871933 76.974049 26.74553 77.192313 23.029447 C 77.192313 21.473617 77.455349 18.574625 77.975824 14.326874 C 78.4963 10.079123 78.944021 7.527114 79.307794 6.676445 C 80.348745 4.404262 81.781451 3.262574 83.600317 3.262574 C 84.098406 3.262574 84.641268 3.380101 85.228901 3.615154 C 85.827728 3.833418 86.286642 4.174805 86.611239 4.628122 C 89.78446 4.628122 91.978292 4.812807 93.198331 5.17658 C 94.429564 5.534757 95.800708 6.323865 97.30617 7.555097 C 100.479391 10.185457 102.063203 13.728047 102.063203 18.188466 C 102.063203 20.958738 101.772185 23.085412 101.184551 24.557294 C 100.596917 26.034773 98.979526 28.972941 96.34357 33.377394 C 99.656704 41.24049 102.572485 46.691491 105.074125 49.730396 C 107.251168 52.825266 108.336891 54.93515 108.336891 56.065645 Z M 93.215121 22.609709 C 93.534122 22.022075 93.696421 21.137827 93.696421 19.951367 L 93.696421 18.188466 C 93.696421 17.863868 93.646052 17.388165 93.545315 16.755759 C 93.545315 16.666215 93.534122 16.554285 93.517332 16.425565 C 93.494946 16.280056 93.461367 16.162529 93.416595 16.072985 C 92.873734 15.076806 92.392434 14.394032 91.983889 14.030259 L 88.85544 12.31213 C 88.491666 16.084178 88.306982 19.402909 88.306982 22.262725 C 88.306982 23.130184 88.351754 24.741979 88.441298 27.103706 C 89.073704 26.835074 89.879601 26.269826 90.853394 25.407964 C 91.838379 24.540505 92.627487 23.611484 93.215121 22.609709 Z M 93.215121 22.609709 " stroke="#000000" stroke-width="4.685058" stroke-opacity="1" stroke-miterlimit="4"/></g><g fill="#000000" fill-opacity="1"><g transform="translate(84.50478, 44.848712)"><g><path d="M 24.359375 0.046875 C 24.359375 0.867188 24.078125 1.554688 23.515625 2.109375 C 22.960938 2.671875 22.273438 2.953125 21.453125 2.953125 C 20.910156 2.953125 20.472656 2.863281 20.140625 2.6875 C 19.804688 2.507812 19.546875 2.300781 19.359375 2.0625 C 19.171875 1.832031 18.796875 1.300781 18.234375 0.46875 C 17.679688 -0.351562 17.148438 -1.113281 16.640625 -1.8125 C 16.078125 -2.570312 15.226562 -3.941406 14.09375 -5.921875 C 12.96875 -7.898438 12.1875 -9.414062 11.75 -10.46875 L 11.171875 -10.171875 C 11.171875 -9.671875 11.238281 -8.53125 11.375 -6.75 C 11.5 -3.957031 11.5625 -2.421875 11.5625 -2.140625 C 11.5625 -1.160156 11.457031 -0.523438 11.25 -0.234375 C 11.039062 0.046875 10.601562 0.1875 9.9375 0.1875 C 9.8125 0.1875 9.59375 0.15625 9.28125 0.09375 C 8.925781 0.1875 8.609375 0.234375 8.328125 0.234375 C 7.242188 0.234375 6.226562 -0.492188 5.28125 -1.953125 C 4.332031 -3.410156 3.609375 -5.085938 3.109375 -6.984375 C 2.617188 -8.890625 2.375 -10.648438 2.375 -12.265625 C 2.375 -16.835938 2.453125 -20.421875 2.609375 -23.015625 C 2.609375 -24.097656 2.789062 -26.117188 3.15625 -29.078125 C 3.519531 -32.046875 3.832031 -33.832031 4.09375 -34.4375 C 4.820312 -36.019531 5.820312 -36.8125 7.09375 -36.8125 C 7.4375 -36.8125 7.8125 -36.734375 8.21875 -36.578125 C 8.632812 -36.421875 8.953125 -36.179688 9.171875 -35.859375 C 11.398438 -35.859375 12.941406 -35.726562 13.796875 -35.46875 C 14.648438 -35.21875 15.597656 -34.664062 16.640625 -33.8125 C 18.859375 -31.976562 19.96875 -29.503906 19.96875 -26.390625 C 19.96875 -24.460938 19.757812 -22.984375 19.34375 -21.953125 C 18.9375 -20.921875 17.816406 -18.867188 15.984375 -15.796875 C 18.296875 -10.304688 20.320312 -6.5 22.0625 -4.375 C 23.59375 -2.21875 24.359375 -0.742188 24.359375 0.046875 Z M 13.796875 -23.3125 C 14.015625 -23.71875 14.125 -24.332031 14.125 -25.15625 L 14.125 -26.390625 C 14.125 -26.617188 14.09375 -26.953125 14.03125 -27.390625 C 14.03125 -27.453125 14.019531 -27.53125 14 -27.625 C 13.988281 -27.726562 13.96875 -27.8125 13.9375 -27.875 C 13.550781 -28.570312 13.21875 -29.046875 12.9375 -29.296875 L 10.75 -30.484375 C 10.5 -27.859375 10.375 -25.546875 10.375 -23.546875 C 10.375 -22.941406 10.40625 -21.816406 10.46875 -20.171875 C 10.90625 -20.359375 11.460938 -20.753906 12.140625 -21.359375 C 12.828125 -21.960938 13.378906 -22.613281 13.796875 -23.3125 Z M 13.796875 -23.3125 "/></g></g></g><g fill="#000000" fill-opacity="1"><g transform="translate(111.227807, 44.848712)"><g><path d="M 9.703125 -34.109375 C 9.097656 -34.609375 8.429688 -34.859375 7.703125 -34.859375 C 6.972656 -34.859375 6.320312 -34.597656 5.75 -34.078125 C 5.1875 -33.554688 4.867188 -32.929688 4.796875 -32.203125 C 4.765625 -31.816406 4.703125 -31.53125 4.609375 -31.34375 C 3.628906 -27.789062 3.007812 -25.078125 2.75 -23.203125 C 2.5 -21.335938 2.375 -18.535156 2.375 -14.796875 L 2.375 -5.703125 C 2.375 -4.441406 2.644531 -3.441406 3.1875 -2.703125 C 3.726562 -1.972656 4.472656 -1.609375 5.421875 -1.609375 C 6.210938 -1.609375 6.894531 -1.894531 7.46875 -2.46875 C 8.351562 -1.363281 9.316406 -0.617188 10.359375 -0.234375 C 11.410156 0.140625 12.890625 0.328125 14.796875 0.328125 C 16.023438 0.328125 17.066406 0.0507812 17.921875 -0.5 C 18.785156 -1.050781 19.21875 -1.851562 19.21875 -2.90625 C 19.21875 -3.757812 18.914062 -4.453125 18.3125 -4.984375 C 17.707031 -5.523438 17.007812 -5.796875 16.21875 -5.796875 C 15.769531 -5.796875 15.359375 -5.703125 14.984375 -5.515625 C 13.960938 -5.515625 13.070312 -5.59375 12.3125 -5.75 C 12.3125 -6.382812 12.300781 -7.128906 12.28125 -7.984375 C 12.269531 -8.847656 12.265625 -9.421875 12.265625 -9.703125 C 12.265625 -10.273438 12.296875 -11.734375 12.359375 -14.078125 L 14.609375 -14.078125 C 15.398438 -14.078125 16.078125 -14.363281 16.640625 -14.9375 C 17.210938 -15.507812 17.5 -16.191406 17.5 -16.984375 C 17.5 -17.773438 17.210938 -18.460938 16.640625 -19.046875 C 16.078125 -19.628906 15.398438 -19.921875 14.609375 -19.921875 L 12.703125 -19.921875 C 12.953125 -24.078125 13.15625 -26.914062 13.3125 -28.4375 L 14.65625 -28.15625 C 15.539062 -27.9375 16.429688 -27.722656 17.328125 -27.515625 C 18.234375 -27.304688 18.671875 -27.203125 18.640625 -27.203125 C 19.398438 -27.203125 20.070312 -27.472656 20.65625 -28.015625 C 21.25 -28.554688 21.546875 -29.253906 21.546875 -30.109375 C 21.546875 -30.742188 21.363281 -31.3125 21 -31.8125 C 20.632812 -32.320312 20.148438 -32.6875 19.546875 -32.90625 C 19.203125 -33.039062 18.726562 -33.175781 18.125 -33.3125 C 17.519531 -33.457031 16.71875 -33.632812 15.71875 -33.84375 C 14.71875 -34.050781 13.835938 -34.25 13.078125 -34.4375 C 12.347656 -34.59375 11.859375 -34.671875 11.609375 -34.671875 C 11.066406 -34.671875 10.617188 -34.578125 10.265625 -34.390625 C 9.921875 -34.203125 9.734375 -34.109375 9.703125 -34.109375 Z M 9.703125 -34.109375 "/></g></g></g><g fill="#000000" fill-opacity="1"><g transform="translate(135.145389, 44.848712)"><g><path d="M 18.453125 -30.390625 C 18.453125 -31.878906 17.390625 -33.101562 15.265625 -34.0625 C 14.023438 -34.59375 12.820312 -34.859375 11.65625 -34.859375 C 10.039062 -34.859375 8.722656 -34.144531 7.703125 -32.71875 C 7.328125 -32.875 6.960938 -32.953125 6.609375 -32.953125 C 5.472656 -32.953125 4.484375 -32.285156 3.640625 -30.953125 C 2.796875 -29.628906 2.375 -28.332031 2.375 -27.0625 C 2.375 -26.425781 2.460938 -25.734375 2.640625 -24.984375 C 2.816406 -24.242188 3.003906 -23.613281 3.203125 -23.09375 C 3.410156 -22.570312 3.679688 -21.894531 4.015625 -21.0625 C 4.347656 -20.238281 4.578125 -19.65625 4.703125 -19.3125 C 5.148438 -18.007812 5.546875 -17.054688 5.890625 -16.453125 C 7.984375 -12.296875 9.332031 -9.363281 9.9375 -7.65625 C 10.289062 -6.832031 10.46875 -5.960938 10.46875 -5.046875 C 10.46875 -4.316406 10.40625 -3.570312 10.28125 -2.8125 C 9.738281 -3.3125 9.070312 -3.5625 8.28125 -3.5625 C 7.414062 -3.5625 6.710938 -3.257812 6.171875 -2.65625 C 5.640625 -2.0625 5.375 -1.382812 5.375 -0.625 C 5.375 0.519531 5.910156 1.472656 6.984375 2.234375 C 8.066406 2.992188 9.335938 3.375 10.796875 3.375 C 13.929688 3.375 16.003906 2.644531 17.015625 1.1875 C 18.035156 -0.269531 18.546875 -2.757812 18.546875 -6.28125 C 18.546875 -10.207031 17.070312 -15.644531 14.125 -22.59375 C 13.613281 -23.726562 13.28125 -24.507812 13.125 -24.9375 C 12.96875 -25.375 12.816406 -25.929688 12.671875 -26.609375 C 12.535156 -27.296875 12.46875 -28.035156 12.46875 -28.828125 C 12.8125 -28.691406 13.0625 -28.5625 13.21875 -28.4375 C 14.101562 -27.800781 14.847656 -27.484375 15.453125 -27.484375 C 16.304688 -27.484375 17.019531 -27.769531 17.59375 -28.34375 C 18.164062 -28.914062 18.453125 -29.597656 18.453125 -30.390625 Z M 18.453125 -30.390625 "/></g></g></g><g fill="#000000" fill-opacity="1"><g transform="translate(156.067333, 44.848712)"><g><path d="M 5.375 -27.875 C 5.820312 -27.875 6.25 -27.984375 6.65625 -28.203125 C 7.539062 -28.585938 7.984375 -28.679688 7.984375 -28.484375 C 7.953125 -28.078125 7.9375 -27.445312 7.9375 -26.59375 C 7.9375 -24.5625 8.035156 -22.6875 8.234375 -20.96875 C 8.796875 -15.164062 9.128906 -9.0625 9.234375 -2.65625 C 9.234375 -1.894531 9.484375 -1.238281 9.984375 -0.6875 C 10.492188 -0.132812 11.113281 0.1875 11.84375 0.28125 C 12.0625 0.789062 12.425781 1.21875 12.9375 1.5625 C 13.445312 1.914062 13.984375 2.09375 14.546875 2.09375 C 15.347656 2.09375 16.03125 1.796875 16.59375 1.203125 C 17.164062 0.617188 17.453125 -0.0664062 17.453125 -0.859375 C 17.453125 -1.078125 17.390625 -3.523438 17.265625 -8.203125 C 17.140625 -12.878906 17.078125 -17.25 17.078125 -21.3125 C 17.078125 -24.164062 17.234375 -26.703125 17.546875 -28.921875 L 19.59375 -28.734375 C 19.59375 -28.703125 19.828125 -28.8125 20.296875 -29.0625 C 20.773438 -29.3125 21.257812 -29.675781 21.75 -30.15625 C 22.25 -30.632812 22.5 -31.109375 22.5 -31.578125 C 22.5 -32.941406 21.953125 -33.8125 20.859375 -34.1875 C 19.765625 -34.570312 17.945312 -34.765625 15.40625 -34.765625 L 12.75 -34.765625 C 11.257812 -34.765625 9.957031 -34.71875 8.84375 -34.625 C 7.738281 -34.53125 6.660156 -34.347656 5.609375 -34.078125 C 4.566406 -33.804688 3.765625 -33.398438 3.203125 -32.859375 C 2.648438 -32.328125 2.375 -31.648438 2.375 -30.828125 C 2.375 -29.960938 2.675781 -29.253906 3.28125 -28.703125 C 3.882812 -28.148438 4.582031 -27.875 5.375 -27.875 Z M 5.375 -27.875 "/></g></g></g><g fill="#000000" fill-opacity="1"><g transform="translate(180.935914, 44.848712)"><g><path d="M 21.453125 -12.078125 C 22.242188 -12.078125 22.929688 -11.789062 23.515625 -11.21875 C 24.109375 -10.65625 24.40625 -9.972656 24.40625 -9.171875 C 24.40625 -8.378906 24.109375 -7.691406 23.515625 -7.109375 C 22.929688 -6.523438 22.242188 -6.234375 21.453125 -6.234375 L 20.96875 -6.234375 L 20.96875 -5.140625 L 21.21875 -4.5625 C 21.34375 -4.28125 21.40625 -3.945312 21.40625 -3.5625 C 21.40625 -2.769531 21.117188 -2.082031 20.546875 -1.5 C 19.972656 -0.914062 19.273438 -0.625 18.453125 -0.625 C 17.472656 -0.625 16.671875 -1.066406 16.046875 -1.953125 C 15.429688 -2.835938 15.125 -3.882812 15.125 -5.09375 L 15.125 -6.234375 L 9.84375 -6.234375 C 9.6875 -5.472656 9.492188 -4.671875 9.265625 -3.828125 C 9.046875 -2.984375 8.9375 -2.546875 8.9375 -2.515625 C 8.75 -1.660156 8.476562 -1.007812 8.125 -0.5625 C 7.78125 -0.125 7.242188 0.09375 6.515625 0.09375 C 6.097656 0.09375 5.75 0.03125 5.46875 -0.09375 C 4.863281 0.3125 4.390625 0.515625 4.046875 0.515625 C 3.628906 0.515625 3.316406 0.332031 3.109375 -0.03125 C 2.910156 -0.394531 2.695312 -0.921875 2.46875 -1.609375 C 2.40625 -1.867188 2.375 -2.171875 2.375 -2.515625 C 2.375 -5.054688 3.210938 -10.203125 4.890625 -17.953125 C 6.578125 -25.703125 7.925781 -30.578125 8.9375 -32.578125 C 9.09375 -33.242188 9.414062 -33.78125 9.90625 -34.1875 C 10.40625 -34.601562 11.035156 -34.8125 11.796875 -34.8125 C 12.109375 -34.8125 12.457031 -34.765625 12.84375 -34.671875 C 13.414062 -35.648438 14.253906 -36.140625 15.359375 -36.140625 C 17.328125 -36.140625 18.3125 -34.8125 18.3125 -32.15625 L 18.9375 -27.109375 C 19.34375 -23.742188 19.753906 -20.398438 20.171875 -17.078125 L 20.78125 -12.078125 Z M 11.21875 -12.078125 L 14.9375 -12.078125 C 14.550781 -16.835938 14.203125 -20.070312 13.890625 -21.78125 L 13.3125 -21.40625 C 13.25 -21.082031 12.550781 -17.972656 11.21875 -12.078125 Z M 11.21875 -12.078125 "/></g></g></g><g fill="#000000" fill-opacity="1"><g transform="translate(207.706494, 44.848712)"><g><path d="M 12.359375 1.328125 C 12.929688 1.554688 13.597656 1.671875 14.359375 1.671875 C 15.691406 1.671875 16.847656 1.191406 17.828125 0.234375 C 18.816406 -0.710938 19.578125 -2.023438 20.109375 -3.703125 C 20.648438 -5.390625 21.039062 -7.195312 21.28125 -9.125 C 21.519531 -11.0625 21.640625 -13.15625 21.640625 -15.40625 C 21.640625 -18.226562 21.671875 -21.78125 21.734375 -26.0625 C 21.796875 -30.34375 21.828125 -32.910156 21.828125 -33.765625 C 21.828125 -34.585938 21.550781 -35.285156 21 -35.859375 C 20.445312 -36.429688 19.753906 -36.71875 18.921875 -36.71875 C 18.097656 -36.71875 17.398438 -36.429688 16.828125 -35.859375 C 16.265625 -35.285156 15.984375 -34.585938 15.984375 -33.765625 C 15.984375 -31.804688 15.953125 -30.117188 15.890625 -28.703125 C 15.828125 -27.296875 15.796875 -26.050781 15.796875 -24.96875 L 15.796875 -12.984375 C 15.796875 -11.429688 15.675781 -10.128906 15.4375 -9.078125 C 15.195312 -8.035156 14.726562 -6.546875 14.03125 -4.609375 C 12.601562 -6.828125 11.890625 -9.96875 11.890625 -14.03125 C 11.890625 -18.882812 11.90625 -22.957031 11.9375 -26.25 C 11.96875 -29.550781 11.984375 -31.675781 11.984375 -32.625 C 11.984375 -33.414062 11.726562 -34.066406 11.21875 -34.578125 C 11.0625 -35.242188 10.707031 -35.78125 10.15625 -36.1875 C 9.601562 -36.601562 9.023438 -36.8125 8.421875 -36.8125 C 7.210938 -36.8125 6.1875 -36.128906 5.34375 -34.765625 C 4.507812 -33.398438 3.882812 -31.546875 3.46875 -29.203125 C 3.0625 -26.859375 2.773438 -24.523438 2.609375 -22.203125 C 2.453125 -19.890625 2.375 -17.390625 2.375 -14.703125 L 2.375 -11.375 C 2.375 -9.40625 2.519531 -7.992188 2.8125 -7.140625 C 3.40625 -4.921875 4.519531 -2.878906 6.15625 -1.015625 C 7.789062 0.835938 9.398438 1.765625 10.984375 1.765625 C 11.429688 1.765625 11.890625 1.617188 12.359375 1.328125 Z M 12.359375 1.328125 "/></g></g></g><g fill="#000000" fill-opacity="1"><g transform="translate(231.909377, 44.848712)"><g><path d="M 24.359375 0.046875 C 24.359375 0.867188 24.078125 1.554688 23.515625 2.109375 C 22.960938 2.671875 22.273438 2.953125 21.453125 2.953125 C 20.910156 2.953125 20.472656 2.863281 20.140625 2.6875 C 19.804688 2.507812 19.546875 2.300781 19.359375 2.0625 C 19.171875 1.832031 18.796875 1.300781 18.234375 0.46875 C 17.679688 -0.351562 17.148438 -1.113281 16.640625 -1.8125 C 16.078125 -2.570312 15.226562 -3.941406 14.09375 -5.921875 C 12.96875 -7.898438 12.1875 -9.414062 11.75 -10.46875 L 11.171875 -10.171875 C 11.171875 -9.671875 11.238281 -8.53125 11.375 -6.75 C 11.5 -3.957031 11.5625 -2.421875 11.5625 -2.140625 C 11.5625 -1.160156 11.457031 -0.523438 11.25 -0.234375 C 11.039062 0.046875 10.601562 0.1875 9.9375 0.1875 C 9.8125 0.1875 9.59375 0.15625 9.28125 0.09375 C 8.925781 0.1875 8.609375 0.234375 8.328125 0.234375 C 7.242188 0.234375 6.226562 -0.492188 5.28125 -1.953125 C 4.332031 -3.410156 3.609375 -5.085938 3.109375 -6.984375 C 2.617188 -8.890625 2.375 -10.648438 2.375 -12.265625 C 2.375 -16.835938 2.453125 -20.421875 2.609375 -23.015625 C 2.609375 -24.097656 2.789062 -26.117188 3.15625 -29.078125 C 3.519531 -32.046875 3.832031 -33.832031 4.09375 -34.4375 C 4.820312 -36.019531 5.820312 -36.8125 7.09375 -36.8125 C 7.4375 -36.8125 7.8125 -36.734375 8.21875 -36.578125 C 8.632812 -36.421875 8.953125 -36.179688 9.171875 -35.859375 C 11.398438 -35.859375 12.941406 -35.726562 13.796875 -35.46875 C 14.648438 -35.21875 15.597656 -34.664062 16.640625 -33.8125 C 18.859375 -31.976562 19.96875 -29.503906 19.96875 -26.390625 C 19.96875 -24.460938 19.757812 -22.984375 19.34375 -21.953125 C 18.9375 -20.921875 17.816406 -18.867188 15.984375 -15.796875 C 18.296875 -10.304688 20.320312 -6.5 22.0625 -4.375 C 23.59375 -2.21875 24.359375 -0.742188 24.359375 0.046875 Z M 13.796875 -23.3125 C 14.015625 -23.71875 14.125 -24.332031 14.125 -25.15625 L 14.125 -26.390625 C 14.125 -26.617188 14.09375 -26.953125 14.03125 -27.390625 C 14.03125 -27.453125 14.019531 -27.53125 14 -27.625 C 13.988281 -27.726562 13.96875 -27.8125 13.9375 -27.875 C 13.550781 -28.570312 13.21875 -29.046875 12.9375 -29.296875 L 10.75 -30.484375 C 10.5 -27.859375 10.375 -25.546875 10.375 -23.546875 C 10.375 -22.941406 10.40625 -21.816406 10.46875 -20.171875 C 10.90625 -20.359375 11.460938 -20.753906 12.140625 -21.359375 C 12.828125 -21.960938 13.378906 -22.613281 13.796875 -23.3125 Z M 13.796875 -23.3125 "/></g></g></g><g fill="#000000" fill-opacity="1"><g transform="translate(258.632403, 44.848712)"><g><path d="M 21.453125 -12.078125 C 22.242188 -12.078125 22.929688 -11.789062 23.515625 -11.21875 C 24.109375 -10.65625 24.40625 -9.972656 24.40625 -9.171875 C 24.40625 -8.378906 24.109375 -7.691406 23.515625 -7.109375 C 22.929688 -6.523438 22.242188 -6.234375 21.453125 -6.234375 L 20.96875 -6.234375 L 20.96875 -5.140625 L 21.21875 -4.5625 C 21.34375 -4.28125 21.40625 -3.945312 21.40625 -3.5625 C 21.40625 -2.769531 21.117188 -2.082031 20.546875 -1.5 C 19.972656 -0.914062 19.273438 -0.625 18.453125 -0.625 C 17.472656 -0.625 16.671875 -1.066406 16.046875 -1.953125 C 15.429688 -2.835938 15.125 -3.882812 15.125 -5.09375 L 15.125 -6.234375 L 9.84375 -6.234375 C 9.6875 -5.472656 9.492188 -4.671875 9.265625 -3.828125 C 9.046875 -2.984375 8.9375 -2.546875 8.9375 -2.515625 C 8.75 -1.660156 8.476562 -1.007812 8.125 -0.5625 C 7.78125 -0.125 7.242188 0.09375 6.515625 0.09375 C 6.097656 0.09375 5.75 0.03125 5.46875 -0.09375 C 4.863281 0.3125 4.390625 0.515625 4.046875 0.515625 C 3.628906 0.515625 3.316406 0.332031 3.109375 -0.03125 C 2.910156 -0.394531 2.695312 -0.921875 2.46875 -1.609375 C 2.40625 -1.867188 2.375 -2.171875 2.375 -2.515625 C 2.375 -5.054688 3.210938 -10.203125 4.890625 -17.953125 C 6.578125 -25.703125 7.925781 -30.578125 8.9375 -32.578125 C 9.09375 -33.242188 9.414062 -33.78125 9.90625 -34.1875 C 10.40625 -34.601562 11.035156 -34.8125 11.796875 -34.8125 C 12.109375 -34.8125 12.457031 -34.765625 12.84375 -34.671875 C 13.414062 -35.648438 14.253906 -36.140625 15.359375 -36.140625 C 17.328125 -36.140625 18.3125 -34.8125 18.3125 -32.15625 L 18.9375 -27.109375 C 19.34375 -23.742188 19.753906 -20.398438 20.171875 -17.078125 L 20.78125 -12.078125 Z M 11.21875 -12.078125 L 14.9375 -12.078125 C 14.550781 -16.835938 14.203125 -20.070312 13.890625 -21.78125 L 13.3125 -21.40625 C 13.25 -21.082031 12.550781 -17.972656 11.21875 -12.078125 Z M 11.21875 -12.078125 "/></g></g></g><g fill="#000000" fill-opacity="1"><g transform="translate(285.402994, 44.848712)"><g><path d="M 18.078125 -16.078125 C 17.878906 -16.421875 17.675781 -16.910156 17.46875 -17.546875 C 17.269531 -18.179688 17.039062 -18.96875 16.78125 -19.90625 C 16.53125 -20.84375 16.34375 -21.515625 16.21875 -21.921875 C 16.09375 -22.367188 15.898438 -22.988281 15.640625 -23.78125 C 15.296875 -24.957031 15.035156 -25.820312 14.859375 -26.375 C 14.691406 -26.925781 14.460938 -27.597656 14.171875 -28.390625 C 13.890625 -29.179688 13.648438 -29.734375 13.453125 -30.046875 C 13.265625 -30.367188 13.035156 -30.710938 12.765625 -31.078125 C 12.492188 -31.441406 12.21875 -31.6875 11.9375 -31.8125 C 11.65625 -31.945312 11.335938 -32.015625 10.984375 -32.015625 C 10.734375 -32.015625 10.546875 -32 10.421875 -31.96875 C 10.421875 -33.070312 10.039062 -33.976562 9.28125 -34.6875 C 8.519531 -35.40625 7.644531 -35.765625 6.65625 -35.765625 C 5.863281 -35.765625 5.179688 -35.453125 4.609375 -34.828125 C 4.035156 -34.210938 3.75 -33.492188 3.75 -32.671875 L 3.90625 -31.25 C 3.90625 -30.488281 3.773438 -29.351562 3.515625 -27.84375 C 3.265625 -26.34375 3.007812 -24.082031 2.75 -21.0625 C 2.5 -18.050781 2.375 -14.3125 2.375 -9.84375 C 2.375 -8.164062 2.453125 -6.929688 2.609375 -6.140625 C 2.773438 -5.347656 3.175781 -4.394531 3.8125 -3.28125 L 3.8125 -2.421875 C 3.8125 -1.691406 4.054688 -1.113281 4.546875 -0.6875 C 5.035156 -0.257812 5.550781 -0.046875 6.09375 -0.046875 C 6.5 -0.046875 6.894531 -0.140625 7.28125 -0.328125 C 7.78125 0.078125 8.378906 0.28125 9.078125 0.28125 C 9.941406 0.28125 10.640625 -0.015625 11.171875 -0.609375 C 11.710938 -1.210938 11.984375 -2.023438 11.984375 -3.046875 C 11.984375 -3.992188 11.847656 -6.257812 11.578125 -9.84375 C 11.304688 -13.425781 11.171875 -15.582031 11.171875 -16.3125 L 11.796875 -16.640625 L 14.171875 -10.65625 C 14.265625 -10.300781 14.515625 -9.679688 14.921875 -8.796875 C 15.335938 -7.910156 15.597656 -7.273438 15.703125 -6.890625 C 16.234375 -5.085938 16.816406 -3.566406 17.453125 -2.328125 L 17.453125 -2.28125 C 17.515625 -1.070312 17.910156 -0.140625 18.640625 0.515625 C 19.085938 0.898438 19.515625 1.09375 19.921875 1.09375 C 21.160156 1.09375 22.160156 0.601562 22.921875 -0.375 C 23.679688 -1.363281 24.125 -2.617188 24.25 -4.140625 C 24.445312 -6.671875 24.546875 -10.238281 24.546875 -14.84375 C 24.546875 -21.8125 24.863281 -27.738281 25.5 -32.625 C 25.5 -33.445312 25.226562 -34.160156 24.6875 -34.765625 C 24.144531 -35.367188 23.460938 -35.671875 22.640625 -35.671875 C 22.003906 -35.671875 21.425781 -35.476562 20.90625 -35.09375 C 20.382812 -34.71875 20.007812 -34.210938 19.78125 -33.578125 C 19.5 -32.660156 19.375 -31.882812 19.40625 -31.25 C 19.09375 -29.15625 18.851562 -24.128906 18.6875 -16.171875 Z M 18.078125 -16.078125 "/></g></g></g><g fill="#000000" fill-opacity="1"><g transform="translate(313.267225, 44.848712)"><g><path d="M 5.375 -27.875 C 5.820312 -27.875 6.25 -27.984375 6.65625 -28.203125 C 7.539062 -28.585938 7.984375 -28.679688 7.984375 -28.484375 C 7.953125 -28.078125 7.9375 -27.445312 7.9375 -26.59375 C 7.9375 -24.5625 8.035156 -22.6875 8.234375 -20.96875 C 8.796875 -15.164062 9.128906 -9.0625 9.234375 -2.65625 C 9.234375 -1.894531 9.484375 -1.238281 9.984375 -0.6875 C 10.492188 -0.132812 11.113281 0.1875 11.84375 0.28125 C 12.0625 0.789062 12.425781 1.21875 12.9375 1.5625 C 13.445312 1.914062 13.984375 2.09375 14.546875 2.09375 C 15.347656 2.09375 16.03125 1.796875 16.59375 1.203125 C 17.164062 0.617188 17.453125 -0.0664062 17.453125 -0.859375 C 17.453125 -1.078125 17.390625 -3.523438 17.265625 -8.203125 C 17.140625 -12.878906 17.078125 -17.25 17.078125 -21.3125 C 17.078125 -24.164062 17.234375 -26.703125 17.546875 -28.921875 L 19.59375 -28.734375 C 19.59375 -28.703125 19.828125 -28.8125 20.296875 -29.0625 C 20.773438 -29.3125 21.257812 -29.675781 21.75 -30.15625 C 22.25 -30.632812 22.5 -31.109375 22.5 -31.578125 C 22.5 -32.941406 21.953125 -33.8125 20.859375 -34.1875 C 19.765625 -34.570312 17.945312 -34.765625 15.40625 -34.765625 L 12.75 -34.765625 C 11.257812 -34.765625 9.957031 -34.71875 8.84375 -34.625 C 7.738281 -34.53125 6.660156 -34.347656 5.609375 -34.078125 C 4.566406 -33.804688 3.765625 -33.398438 3.203125 -32.859375 C 2.648438 -32.328125 2.375 -31.648438 2.375 -30.828125 C 2.375 -29.960938 2.675781 -29.253906 3.28125 -28.703125 C 3.882812 -28.148438 4.582031 -27.875 5.375 -27.875 Z M 5.375 -27.875 "/></g></g></g></svg>