<svg xmlns="http://www.w3.org/2000/svg" xmlns:xlink="http://www.w3.org/1999/xlink" width="340" zoomAndPan="magnify" viewBox="0 0 255 135.000003" height="180" preserveAspectRatio="xMidYMid meet" version="1.0"><defs><clipPath id="b447ca220f"><path d="M 0.9375 49 L 254.0625 49 L 254.0625 127 L 0.9375 127 Z M 0.9375 49 " clip-rule="nonzero"/></clipPath></defs><path stroke-linecap="butt" transform="matrix(0.695847, 0, 0, 0.695847, 83.502275, 18.351498)" fill="none" stroke-linejoin="miter" d="M 38.029301 45.919861 C 39.393422 48.00253 40.072675 49.568742 40.072675 50.60727 C 40.072675 51.752457 39.674105 52.734848 38.876964 53.554443 C 38.085438 54.362811 37.131115 54.766994 35.997155 54.766994 C 34.268147 54.766994 32.993845 54.020377 32.168637 52.521529 C 29.996149 48.709851 27.773138 43.461076 25.499604 36.78643 C 25.353649 36.286814 25.134716 35.562651 24.837192 34.608328 C 24.545281 33.654006 24.315121 32.924229 24.135484 32.424613 C 24.500372 40.968609 24.685623 46.829274 24.685623 50.012221 C 24.685623 51.230386 24.264598 52.229618 23.422549 53.004304 C 22.580499 53.773376 21.407243 54.155105 19.908395 54.155105 C 17.505747 54.065286 16.006899 53.088509 15.417464 51.224773 C 15.097486 50.225541 14.88978 49.59681 14.805575 49.327354 C 13.750206 47.323276 12.79027 43.388098 11.925766 37.533047 C 11.072489 31.677996 10.64585 26.726745 10.64585 22.679293 C 10.64585 17.952589 11.027579 14.023024 11.791038 10.884986 C 12.436609 8.297087 12.846406 6.444578 13.026044 5.310618 C 13.211295 4.300159 13.710911 3.458109 14.519278 2.78447 C 15.338873 2.105216 16.270741 1.768397 17.314883 1.768397 C 19.043891 1.768397 20.273283 2.582378 20.991832 4.21034 C 22.002292 4.446114 22.821887 4.985026 23.456231 5.827075 C 24.084961 6.657898 24.36003 7.595379 24.270212 8.639521 L 24.135484 10.003641 C 24.090575 10.503257 24.06812 11.951582 24.06812 14.359844 C 24.292667 14.096002 24.674396 13.658136 25.218921 13.046247 C 25.763446 12.42313 26.100266 12.047015 26.234994 11.9179 C 26.375336 11.783172 26.633564 11.51933 26.998452 11.131987 C 27.36334 10.744645 27.655251 10.463961 27.879798 10.284324 C 28.109958 10.099073 28.407482 9.846458 28.761143 9.537707 C 29.126031 9.212114 29.535828 8.869681 29.990535 8.504793 C 30.770834 7.915358 31.657793 7.623448 32.651412 7.623448 C 33.830281 7.623448 34.818286 8.01079 35.615426 8.785476 C 36.412566 9.554548 36.811136 10.55378 36.811136 11.783172 C 36.811136 13.147293 36.283452 14.23073 35.233697 15.044711 C 33.381188 16.594082 32.269682 17.621383 31.904794 18.120999 C 31.539906 18.575705 30.855039 19.344777 29.861421 20.433828 C 30.271218 21.107468 30.47331 21.859699 30.47331 22.679293 C 30.47331 23.308024 30.518219 23.875004 30.608038 24.37462 C 31.062745 26.513426 32.207932 30.302649 34.049214 35.736675 C 35.890495 41.159474 37.21532 44.55574 38.029301 45.919861 Z M 69.909297 12.462426 C 69.909297 10.32362 68.393608 8.572157 65.351002 7.208037 C 63.577084 6.444578 61.85369 6.057236 60.180818 6.057236 C 57.862375 6.057236 55.976184 7.078922 54.522245 9.122296 C 53.966492 8.886522 53.444421 8.768635 52.944805 8.768635 C 51.311229 8.768635 49.890972 9.728572 48.684035 11.648444 C 47.488324 13.55709 46.887662 15.415213 46.887662 17.222812 C 46.887662 18.132226 47.011163 19.125844 47.252551 20.198054 C 47.510779 21.26465 47.780235 22.174064 48.066532 22.926295 C 48.36967 23.672912 48.757012 24.638462 49.234174 25.822945 C 49.711335 26.996201 50.042541 27.83825 50.233406 28.332253 C 50.862136 30.195989 51.429116 31.560109 51.928732 32.424613 C 54.920815 38.369483 56.851915 42.574117 57.716419 45.038515 C 58.216036 46.211771 58.463037 47.458004 58.463037 48.782829 C 58.463037 49.821357 58.378832 50.887953 58.199195 51.97139 C 57.424509 51.252841 56.470186 50.893567 55.336226 50.893567 C 54.106834 50.893567 53.101988 51.325819 52.327302 52.190323 C 51.563844 53.0436 51.176501 54.020377 51.176501 55.120655 C 51.176501 56.748618 51.951187 58.107124 53.489331 59.196175 C 55.033088 60.290839 56.851915 60.840978 58.945812 60.840978 C 63.442356 60.840978 66.411984 59.791223 67.865923 57.697327 C 69.319862 55.609044 70.044025 52.044368 70.044025 46.997684 C 70.044025 41.367179 67.938901 33.575414 63.723039 23.628003 C 62.993263 21.994426 62.510488 20.877307 62.274714 20.265418 C 62.055781 19.647915 61.836849 18.845161 61.629143 17.868384 C 61.427051 16.89722 61.326005 15.841851 61.326005 14.707891 C 61.825621 14.887528 62.190509 15.072779 62.426283 15.25803 C 63.689357 16.167444 64.755954 16.62215 65.620458 16.62215 C 66.84985 16.62215 67.871537 16.212353 68.679904 15.392758 C 69.499499 14.573163 69.909297 13.596386 69.909297 12.462426 Z M 108.334824 56.063751 C 108.334824 57.253847 107.936254 58.241852 107.139114 59.027765 C 106.353201 59.824905 105.365196 60.223475 104.180713 60.223475 C 103.411641 60.223475 102.794138 60.099975 102.316977 59.841746 C 101.839815 59.600359 101.4637 59.302835 101.183017 58.960401 C 100.907947 58.617968 100.369035 57.854509 99.571895 56.664413 C 98.780368 55.491157 98.028138 54.402106 97.309589 53.402874 C 96.48438 52.319437 95.266215 50.354655 93.64948 47.514141 C 92.038359 44.679241 90.921239 42.506753 90.286896 41.013519 L 89.472914 41.412089 C 89.472914 42.141865 89.562733 43.781055 89.736756 46.318431 C 89.916394 50.320973 90.006212 52.527143 90.006212 52.93694 C 90.006212 54.34597 89.854643 55.255383 89.557119 55.665181 C 89.265209 56.063751 88.647706 56.265843 87.693383 56.265843 C 87.513746 56.265843 87.199381 56.220933 86.744674 56.131115 C 86.245058 56.265843 85.790351 56.333207 85.380554 56.333207 C 83.836796 56.333207 82.382857 55.289065 81.018737 53.206396 C 79.654617 51.118113 78.621703 48.715465 77.908767 45.987225 C 77.212673 43.258984 76.864626 40.732835 76.864626 38.414392 C 76.864626 31.874474 76.971286 26.743586 77.195832 23.027341 C 77.195832 21.477969 77.454061 18.575705 77.976131 14.326162 C 78.498202 10.082232 78.941681 7.528015 79.30657 6.674739 C 80.350711 4.401205 81.782195 3.267245 83.601022 3.267245 C 84.100638 3.267245 84.63955 3.379518 85.228985 3.615292 C 85.829647 3.834225 86.289967 4.176658 86.609946 4.631365 C 89.781666 4.631365 91.976608 4.811002 93.200387 5.17589 C 94.429779 5.535165 95.799513 6.326691 97.309589 7.556084 C 100.481309 10.183278 102.064362 13.731114 102.064362 18.188363 C 102.064362 20.961512 101.772451 23.083477 101.183017 24.559871 C 100.593582 26.036264 98.98246 28.97221 96.344039 33.373323 C 99.6561 41.238065 102.569591 46.688933 105.078899 49.725924 C 107.251387 52.824667 108.334824 54.935404 108.334824 56.063751 Z M 93.217228 22.611929 C 93.537207 22.022495 93.700003 21.135536 93.700003 19.951053 L 93.700003 18.188363 C 93.700003 17.86277 93.64948 17.391222 93.548434 16.756878 C 93.548434 16.66706 93.537207 16.554786 93.514752 16.425672 C 93.492297 16.279717 93.458615 16.16183 93.413706 16.072011 C 92.869181 15.078393 92.392019 14.393526 91.982222 14.028638 L 88.855411 12.31647 C 88.490523 16.083239 88.305272 19.400914 88.305272 22.263882 C 88.305272 23.128386 88.350182 24.739508 88.44 27.10286 C 89.074344 26.839018 89.877098 26.272038 90.853876 25.407534 C 91.84188 24.54303 92.627793 23.611162 93.217228 22.611929 Z M 93.217228 22.611929 " stroke="#000000" stroke-width="4.685058" stroke-opacity="1" stroke-miterlimit="4"/><path stroke-linecap="butt" transform="matrix(0.744536, 0, 0, 0.744485, 42.633013, 130.406636)" fill="none" stroke-linejoin="miter" d="M -0.000269959 1.998556 L 227.988744 1.998556 " stroke="#48221f" stroke-width="4" stroke-opacity="1" stroke-miterlimit="4"/><path stroke-linecap="butt" transform="matrix(0.744536, 0, 0, 0.744485, 42.633013, 0.110578)" fill="none" stroke-linejoin="miter" d="M -0.000269959 1.997458 L 227.988744 1.997458 " stroke="#48221f" stroke-width="4" stroke-opacity="1" stroke-miterlimit="4"/><g clip-path="url(#b447ca220f)"><path stroke-linecap="butt" transform="matrix(0.695847, 0, 0, 0.695847, 1.040708, 65.303078)" fill="none" stroke-linejoin="miter" d="M 34.931464 56.065972 C 34.931464 57.250455 34.532894 58.238459 33.735753 59.029986 C 32.944227 59.827126 31.961836 60.225696 30.771739 60.225696 C 30.008281 60.225696 29.385164 60.096582 28.908003 59.843967 C 28.430841 59.596966 28.054726 59.305056 27.779656 58.962622 C 27.498973 58.614575 26.965675 57.851117 26.162921 56.666634 C 25.377008 55.487764 24.624777 54.404327 23.900615 53.405095 C 23.08102 52.316044 21.862855 50.356876 20.240506 47.516362 C 18.634998 44.675848 17.512266 42.508974 16.883535 41.010126 L 16.069554 41.408696 C 16.069554 42.144086 16.153759 43.777662 16.333396 46.320652 C 16.513033 50.323194 16.597238 52.529364 16.597238 52.939161 C 16.597238 54.348191 16.451283 55.257604 16.148145 55.667402 C 15.861848 56.065972 15.238732 56.268064 14.284409 56.268064 C 14.110385 56.268064 13.79602 56.223154 13.341314 56.133336 C 12.841697 56.268064 12.386991 56.335428 11.977193 56.335428 C 10.433436 56.335428 8.979497 55.291286 7.615377 53.203003 C 6.251256 51.120334 5.212729 48.712072 4.505407 45.983832 C 3.809313 43.255591 3.455652 40.735056 3.455652 38.416613 C 3.455652 31.871082 3.567925 26.745807 3.792472 23.029562 C 3.792472 21.474577 4.0507 18.577926 4.572771 14.328383 C 5.094842 10.07884 5.538321 7.530236 5.903209 6.67696 C 6.947351 4.403426 8.373221 3.263852 10.192048 3.263852 C 10.691664 3.263852 11.23619 3.381739 11.825624 3.611899 C 12.426286 3.836446 12.886607 4.173266 13.206586 4.627972 C 16.378306 4.627972 18.573248 4.813223 19.791413 5.178111 C 21.026419 5.531772 22.396153 6.323299 23.900615 7.558305 C 27.072335 10.185499 28.661001 13.727721 28.661001 18.18497 C 28.661001 20.95812 28.369091 23.085698 27.779656 24.556478 C 27.190222 26.032872 25.5791 28.974431 22.935065 33.375544 C 26.25274 41.240286 29.166231 46.691154 31.669925 49.728146 C 33.842413 52.821274 34.931464 54.937625 34.931464 56.065972 Z M 19.808254 22.61415 C 20.133846 22.024716 20.291029 21.137757 20.291029 19.94766 L 20.291029 18.18497 C 20.291029 17.864991 20.240506 17.38783 20.145074 16.753486 C 20.145074 16.669281 20.133846 16.557007 20.111392 16.42228 C 20.088937 16.281938 20.055255 16.164051 20.010346 16.074232 C 19.46582 15.075 18.988659 14.395747 18.578862 14.025245 L 15.452051 12.313078 C 15.087163 16.08546 14.901912 19.403135 14.901912 22.26049 C 14.901912 23.124994 14.946821 24.741729 15.03664 27.105081 C 15.66537 26.835625 16.473738 26.274259 17.450515 25.404141 C 18.432906 24.539637 19.224433 23.607769 19.808254 22.61415 Z M 52.238388 7.142894 C 51.373884 6.418731 50.413948 6.059457 49.364193 6.059457 C 48.320051 6.059457 47.388183 6.435572 46.568588 7.193417 C 45.760221 7.93442 45.311128 8.826993 45.221309 9.871134 C 45.1764 10.410046 45.080967 10.825457 44.935012 11.100526 C 43.531596 16.180892 42.639024 20.059934 42.274136 22.743265 C 41.920475 25.426596 41.740838 29.451593 41.740838 34.807028 L 41.740838 47.813886 C 41.740838 49.632713 42.12818 51.069811 42.891639 52.12518 C 43.666324 53.163708 44.738534 53.685778 46.102654 53.685778 C 47.231001 53.685778 48.207778 53.275981 49.027373 52.456386 C 50.307288 54.045053 51.693863 55.111649 53.187098 55.667402 C 54.685946 56.211927 56.796683 56.481383 59.524924 56.481383 C 61.298841 56.481383 62.79769 56.082813 64.021468 55.285672 C 65.250861 54.488532 65.86275 53.337731 65.86275 51.838883 C 65.86275 50.620718 65.430498 49.621486 64.565994 48.8468 C 63.701489 48.072115 62.702257 47.684772 61.573911 47.684772 C 60.92834 47.684772 60.338905 47.8195 59.79438 48.100183 C 58.340441 48.100183 57.071753 47.982296 55.982702 47.746522 C 55.982702 46.837109 55.971475 45.776126 55.94902 44.552348 C 55.926565 43.322955 55.915338 42.50336 55.915338 42.093563 C 55.915338 41.285195 55.960247 39.196913 56.050066 35.839942 L 59.244241 35.839942 C 60.383814 35.839942 61.360592 35.424531 62.174573 34.604936 C 62.994168 33.785341 63.403965 32.808563 63.403965 31.680217 C 63.403965 30.53503 62.994168 29.547025 62.174573 28.716203 C 61.360592 27.874153 60.383814 27.453128 59.244241 27.453128 L 56.532841 27.453128 C 56.886502 21.497031 57.184026 17.432739 57.414186 15.260251 L 59.328446 15.658821 C 60.59152 15.9788 61.871435 16.293165 63.168191 16.590689 C 64.470561 16.876986 65.093678 17.022942 65.048769 17.022942 C 66.137819 17.022942 67.097756 16.641212 67.928578 15.87214 C 68.770628 15.097455 69.191652 14.092609 69.191652 12.863217 C 69.191652 11.953803 68.933424 11.139822 68.411353 10.415659 C 67.889282 9.685883 67.198802 9.163813 66.328684 8.855061 C 65.834682 8.664196 65.149815 8.473332 64.28531 8.27124 C 63.432034 8.063534 62.286846 7.81092 60.855362 7.524623 C 59.429491 7.221485 58.160804 6.940802 57.066139 6.67696 C 56.021998 6.441186 55.32029 6.323299 54.949788 6.323299 C 54.18633 6.323299 53.557599 6.46364 53.057983 6.744324 C 52.558367 7.008166 52.283298 7.142894 52.238388 7.142894 Z M 99.033888 12.464647 C 99.033888 10.325841 97.512585 8.568764 94.475593 7.204644 C 92.701675 6.441186 90.978281 6.059457 89.299795 6.059457 C 86.986966 6.059457 85.100775 7.081143 83.646836 9.118903 C 83.091083 8.888743 82.563399 8.770856 82.063783 8.770856 C 80.435821 8.770856 79.015564 9.730793 77.808626 11.650665 C 76.607302 13.559311 76.012254 15.41182 76.012254 17.21942 C 76.012254 18.128833 76.130141 19.122452 76.377142 20.200275 C 76.629757 21.266871 76.904826 22.176285 77.191123 22.928516 C 77.488647 23.669519 77.881604 24.635069 78.358765 25.825166 C 78.830313 26.998422 79.167133 27.834858 79.352383 28.334474 C 79.986727 30.19821 80.553708 31.56233 81.053324 32.426834 C 84.045406 38.371704 85.976507 42.576338 86.841011 45.035123 C 87.340627 46.213992 87.587628 47.460225 87.587628 48.779436 C 87.587628 49.823578 87.497809 50.88456 87.323786 51.973611 C 86.5491 51.255062 85.594777 50.890174 84.460817 50.890174 C 83.231425 50.890174 82.226579 51.32804 81.451894 52.192544 C 80.682822 53.045821 80.301093 54.022598 80.301093 55.117263 C 80.301093 56.750839 81.075778 58.109345 82.613922 59.192782 C 84.15768 60.29306 85.976507 60.843199 88.070403 60.843199 C 92.561334 60.843199 95.536576 59.793444 96.990514 57.699548 C 98.43884 55.611265 99.168616 52.046589 99.168616 46.999905 C 99.168616 41.363787 97.057878 33.577635 92.847631 23.62461 C 92.112241 21.996647 91.629466 20.873915 91.399306 20.267639 C 91.174759 19.644522 90.96144 18.847382 90.748121 17.870605 C 90.551642 16.893827 90.450596 15.844072 90.450596 14.710112 C 90.950212 14.889749 91.315101 15.069387 91.550874 15.260251 C 92.813949 16.169665 93.874931 16.624371 94.739435 16.624371 C 95.974441 16.624371 96.996128 16.214574 97.804496 15.389365 C 98.624091 14.569771 99.033888 13.592993 99.033888 12.464647 Z M 110.278056 16.074232 C 110.906786 16.074232 111.518676 15.911436 112.10811 15.591457 C 113.382412 15.046932 114.02237 14.917818 114.02237 15.192887 C 113.97746 15.782322 113.955006 16.686122 113.955006 17.904287 C 113.955006 20.812164 114.089734 23.495496 114.370417 25.95428 C 115.178784 34.262502 115.655946 43.00859 115.801901 52.192544 C 115.801901 53.275981 116.161176 54.219076 116.879724 55.016217 C 117.615114 55.807743 118.502073 56.273677 119.546215 56.414019 C 119.866194 57.138181 120.388264 57.744457 121.106813 58.244073 C 121.836589 58.743689 122.611275 58.996304 123.419643 58.996304 C 124.559216 58.996304 125.535994 58.575279 126.349975 57.727616 C 127.16957 56.896794 127.579367 55.908789 127.579367 54.769215 C 127.579367 54.460464 127.483935 50.951924 127.29307 44.254824 C 127.119047 37.546496 127.029228 31.287261 127.029228 25.471505 C 127.029228 21.379144 127.259388 17.747104 127.714095 14.575384 L 130.655655 14.84484 C 130.655655 14.889749 130.992475 14.732567 131.671728 14.378906 C 132.345368 14.014018 133.035848 13.491947 133.731943 12.812694 C 134.444878 12.127827 134.798539 11.437346 134.798539 10.752479 C 134.798539 8.798924 134.018239 7.552691 132.452027 7.008166 C 130.891429 6.46364 128.286689 6.194184 124.649035 6.194184 L 120.842971 6.194184 C 118.698551 6.194184 116.829202 6.261548 115.234921 6.390663 C 113.646254 6.525391 112.10811 6.783619 110.609262 7.176576 C 109.110414 7.563918 107.965227 8.142126 107.168087 8.922425 C 106.37656 9.685883 105.983603 10.662661 105.983603 11.847144 C 105.983603 13.070922 106.410242 14.075768 107.263519 14.878522 C 108.133637 15.675662 109.132869 16.074232 110.278056 16.074232 Z M 168.929613 38.697297 C 170.074801 38.697297 171.057192 39.107094 171.893628 39.932303 C 172.735677 40.74067 173.156702 41.717448 173.156702 42.857021 C 173.156702 43.990981 172.735677 44.973372 171.893628 45.821036 C 171.057192 46.651858 170.074801 47.067269 168.929613 47.067269 L 168.25036 47.067269 L 168.25036 48.644708 L 168.598407 49.464303 C 168.778044 49.874101 168.862249 50.351262 168.862249 50.890174 C 168.862249 52.024134 168.452452 53.012139 167.632857 53.854188 C 166.824489 54.696238 165.825257 55.117263 164.640774 55.117263 C 163.231745 55.117263 162.080944 54.482919 161.193985 53.203003 C 160.318253 51.928702 159.880387 50.429853 159.880387 48.712072 L 159.880387 47.067269 L 152.313169 47.067269 C 152.077395 48.161933 151.802326 49.318348 151.482347 50.525286 C 151.167982 51.72661 151.016413 52.344113 151.016413 52.389022 C 150.73573 53.618414 150.348387 54.550283 149.848771 55.184626 C 149.349155 55.81897 148.580083 56.133336 147.535941 56.133336 C 146.946507 56.133336 146.452504 56.043517 146.037093 55.869493 C 145.172589 56.453314 144.493336 56.750839 143.99372 56.750839 C 143.404285 56.750839 142.960805 56.486996 142.663281 55.964926 C 142.376984 55.442855 142.068233 54.68501 141.748254 53.685778 C 141.658436 53.32089 141.613526 52.888638 141.613526 52.389022 C 141.613526 48.751368 142.820464 41.380628 145.223112 30.282415 C 147.631374 19.167361 149.562474 12.183964 151.016413 9.320995 C 151.246573 8.366672 151.712507 7.5976 152.408601 7.008166 C 153.121537 6.418731 154.019723 6.126821 155.108773 6.126821 C 155.56348 6.126821 156.057483 6.194184 156.602008 6.323299 C 157.421603 4.919883 158.628541 4.212561 160.211594 4.212561 C 163.029653 4.212561 164.438682 6.121207 164.438682 9.932884 L 165.320027 17.157669 C 165.909462 21.968579 166.504511 26.768261 167.099559 31.545489 L 167.980904 38.697297 Z M 154.289179 38.697297 L 159.599704 38.697297 C 159.055179 31.876695 158.555563 27.239809 158.100856 24.792252 L 157.286875 25.342391 C 157.197056 25.797098 156.197824 30.248733 154.289179 38.697297 Z M 194.275304 57.912867 C 195.094899 58.221618 196.049222 58.378801 197.138273 58.378801 C 199.046918 58.378801 200.702949 57.699548 202.111979 56.335428 C 203.521008 54.976921 204.604445 53.101957 205.373517 50.693696 C 206.148203 48.274207 206.709569 45.686308 207.052003 42.924385 C 207.394436 40.151235 207.56846 37.153539 207.56846 33.925683 C 207.56846 29.878231 207.613369 24.786638 207.703187 18.650904 C 207.787392 12.520783 207.832302 8.843834 207.832302 7.625669 C 207.832302 6.435572 207.433732 5.43634 206.636591 4.627972 C 205.850678 3.808377 204.862674 3.39858 203.672577 3.39858 C 202.499321 3.39858 201.500089 3.808377 200.680494 4.627972 C 199.860899 5.43634 199.451102 6.435572 199.451102 7.625669 C 199.451102 10.438114 199.406193 12.857603 199.316374 14.878522 C 199.226555 16.893827 199.181646 18.678972 199.181646 20.233957 L 199.181646 37.40054 C 199.181646 39.617937 199.013236 41.481674 198.665189 42.991749 C 198.322756 44.490597 197.65473 46.62379 196.655498 49.396939 C 194.612124 46.213992 193.596051 41.717448 193.596051 35.901692 C 193.596051 28.951977 193.618506 23.113766 193.657801 18.387062 C 193.702711 13.660357 193.725165 10.617751 193.725165 9.253631 C 193.725165 8.119671 193.365891 7.193417 192.647342 6.458027 C 192.411568 5.503704 191.895111 4.734632 191.097971 4.145197 C 190.312058 3.561376 189.486849 3.263852 188.622345 3.263852 C 186.887723 3.263852 185.422557 4.24063 184.210005 6.194184 C 183.014295 8.142126 182.121723 10.803002 181.532288 14.159973 C 180.942853 17.522558 180.533056 20.857074 180.302896 24.174749 C 180.078349 27.492424 179.971689 31.079555 179.971689 34.941756 L 179.971689 39.71337 C 179.971689 42.531429 180.173781 44.552348 180.583579 45.787354 C 181.436856 48.959074 183.03675 51.872565 185.377647 54.533442 C 187.718545 57.199932 190.020147 58.53037 192.293681 58.53037 C 192.939252 58.53037 193.601665 58.322664 194.275304 57.912867 Z M 246.117487 56.065972 C 246.117487 57.250455 245.718917 58.238459 244.921777 59.029986 C 244.135864 59.827126 243.147859 60.225696 241.963376 60.225696 C 241.194304 60.225696 240.576801 60.096582 240.09964 59.843967 C 239.622479 59.596966 239.240749 59.305056 238.96568 58.962622 C 238.69061 58.614575 238.151699 57.851117 237.354558 56.666634 C 236.563032 55.487764 235.810801 54.404327 235.092252 53.405095 C 234.267044 52.316044 233.048879 50.356876 231.432143 47.516362 C 229.821022 44.675848 228.703903 42.508974 228.069559 41.010126 L 227.255578 41.408696 C 227.255578 42.144086 227.345396 43.777662 227.51942 46.320652 C 227.699057 50.323194 227.788876 52.529364 227.788876 52.939161 C 227.788876 54.348191 227.637307 55.257604 227.339783 55.667402 C 227.047872 56.065972 226.430369 56.268064 225.476046 56.268064 C 225.296409 56.268064 224.982044 56.223154 224.527337 56.133336 C 224.027721 56.268064 223.573014 56.335428 223.163217 56.335428 C 221.619459 56.335428 220.165521 55.291286 218.8014 53.203003 C 217.43728 51.120334 216.404366 48.712072 215.691431 45.983832 C 214.995336 43.255591 214.647289 40.735056 214.647289 38.416613 C 214.647289 31.871082 214.753949 26.745807 214.978495 23.029562 C 214.978495 21.474577 215.236724 18.577926 215.758795 14.328383 C 216.280865 10.07884 216.724345 7.530236 217.089233 6.67696 C 218.133374 4.403426 219.564859 3.263852 221.383686 3.263852 C 221.883302 3.263852 222.422213 3.381739 223.011648 3.611899 C 223.61231 3.836446 224.07263 4.173266 224.392609 4.627972 C 227.564329 4.627972 229.759272 4.813223 230.98305 5.178111 C 232.212443 5.531772 233.582177 6.323299 235.092252 7.558305 C 238.263972 10.185499 239.847025 13.727721 239.847025 18.18497 C 239.847025 20.95812 239.555115 23.085698 238.96568 24.556478 C 238.376245 26.032872 236.765124 28.974431 234.126702 33.375544 C 237.438763 41.240286 240.352255 46.691154 242.861562 49.728146 C 245.03405 52.821274 246.117487 54.937625 246.117487 56.065972 Z M 230.999891 22.61415 C 231.31987 22.024716 231.482666 21.137757 231.482666 19.94766 L 231.482666 18.18497 C 231.482666 17.864991 231.432143 17.38783 231.331097 16.753486 C 231.331097 16.669281 231.31987 16.557007 231.297415 16.42228 C 231.274961 16.281938 231.241279 16.164051 231.19637 16.074232 C 230.651844 15.075 230.174683 14.395747 229.764885 14.025245 L 226.638075 12.313078 C 226.273187 16.08546 226.087936 19.403135 226.087936 22.26049 C 226.087936 23.124994 226.132845 24.741729 226.222664 27.105081 C 226.857008 26.835625 227.659761 26.274259 228.636539 25.404141 C 229.624544 24.539637 230.410457 23.607769 230.999891 22.61415 Z M 280.248562 38.697297 C 281.388136 38.697297 282.37614 39.107094 283.206963 39.932303 C 284.049012 40.74067 284.470037 41.717448 284.470037 42.857021 C 284.470037 43.990981 284.049012 44.973372 283.206963 45.821036 C 282.37614 46.651858 281.388136 47.067269 280.248562 47.067269 L 279.563695 47.067269 L 279.563695 48.644708 L 279.911742 49.464303 C 280.091379 49.874101 280.181198 50.351262 280.181198 50.890174 C 280.181198 52.024134 279.7714 53.012139 278.951806 53.854188 C 278.137824 54.696238 277.144206 55.117263 275.954109 55.117263 C 274.54508 55.117263 273.399892 54.482919 272.512933 53.203003 C 271.637202 51.928702 271.199336 50.429853 271.199336 48.712072 L 271.199336 47.067269 L 263.626504 47.067269 C 263.396344 48.161933 263.115661 49.318348 262.795682 50.525286 C 262.48693 51.72661 262.329748 52.344113 262.329748 52.389022 C 262.054678 53.618414 261.667335 54.550283 261.167719 55.184626 C 260.668103 55.81897 259.893418 56.133336 258.85489 56.133336 C 258.265455 56.133336 257.765839 56.043517 257.356042 55.869493 C 256.491538 56.453314 255.806671 56.750839 255.312668 56.750839 C 254.723234 56.750839 254.279754 56.486996 253.976616 55.964926 C 253.690319 55.442855 253.387182 54.68501 253.061589 53.685778 C 252.977384 53.32089 252.932475 52.888638 252.932475 52.389022 C 252.932475 48.751368 254.133799 41.380628 256.542061 30.282415 C 258.950322 19.167361 260.875809 12.183964 262.329748 9.320995 C 262.565522 8.366672 263.031456 7.5976 263.72755 7.008166 C 264.434872 6.418731 265.333058 6.126821 266.422108 6.126821 C 266.876815 6.126821 267.376431 6.194184 267.920957 6.323299 C 268.740552 4.919883 269.941876 4.212561 271.530542 4.212561 C 274.348601 4.212561 275.757631 6.121207 275.757631 9.932884 L 276.638976 17.157669 C 277.222797 21.968579 277.817846 26.768261 278.418508 31.545489 L 279.299853 38.697297 Z M 265.608127 38.697297 L 270.913039 38.697297 C 270.368514 31.876695 269.868898 27.239809 269.414191 24.792252 L 268.60021 25.342391 C 268.510391 25.797098 267.516773 30.248733 265.608127 38.697297 Z M 313.762133 32.976973 C 313.492678 32.46613 313.211994 31.764422 312.91447 30.860622 C 312.62256 29.951209 312.296967 28.828476 311.932079 27.48681 C 311.561577 26.145145 311.292121 25.179595 311.112484 24.59016 C 310.927233 23.950202 310.652164 23.063244 310.298503 21.929283 C 309.798887 20.245184 309.422771 19.010178 309.170157 18.218652 C 308.911928 17.421512 308.580722 16.455961 308.170924 15.327615 C 307.772354 14.182428 307.435535 13.385288 307.154851 12.930581 C 306.891009 12.475874 306.559803 11.987485 306.17246 11.465415 C 305.785117 10.943344 305.386547 10.595297 304.97675 10.415659 C 304.566952 10.230409 304.112246 10.134976 303.61263 10.134976 C 303.247742 10.134976 302.972672 10.157431 302.798648 10.20234 C 302.798648 8.613673 302.248509 7.311304 301.148231 6.289617 C 300.064794 5.273544 298.818561 4.7627 297.409531 4.7627 C 296.275571 4.7627 295.298794 5.20618 294.479199 6.093139 C 293.670831 6.980097 293.266648 8.013011 293.266648 9.186267 L 293.463126 11.235254 C 293.463126 12.318691 293.283489 13.946654 292.912987 16.107914 C 292.548099 18.257948 292.183211 21.497031 291.818322 25.825166 C 291.464662 30.13646 291.285024 35.491895 291.285024 41.891471 C 291.285024 44.299733 291.397298 46.073651 291.616231 47.218838 C 291.852004 48.347184 292.424598 49.705691 293.334012 51.294358 L 293.334012 52.52375 C 293.334012 53.567891 293.682059 54.398714 294.378153 55.016217 C 295.091088 55.628106 295.826478 55.931244 296.589937 55.931244 C 297.190599 55.931244 297.763192 55.796516 298.307718 55.515833 C 299.026267 56.116495 299.885157 56.414019 300.884389 56.414019 C 302.113781 56.414019 303.113014 55.981767 303.876472 55.117263 C 304.656771 54.252758 305.044114 53.096344 305.044114 51.642405 C 305.044114 50.278285 304.847636 47.027973 304.460293 41.891471 C 304.084177 36.760583 303.893313 33.667454 303.893313 32.628926 L 304.774658 32.146151 L 308.187765 40.729443 C 308.322493 41.240286 308.681768 42.132859 309.271203 43.40716 C 309.855024 44.670235 310.219912 45.574034 310.365867 46.11856 C 311.129325 48.712072 311.971375 50.890174 312.880788 52.658478 L 312.880788 52.720228 C 312.964993 54.45485 313.537587 55.796516 314.592956 56.750839 C 315.221686 57.28975 315.833575 57.56482 316.42301 57.56482 C 318.196928 57.56482 319.628412 56.857498 320.711849 55.448469 C 321.812127 54.045053 322.452085 52.24868 322.626108 50.076193 C 322.906791 46.438539 323.041519 41.324491 323.041519 34.739664 C 323.041519 24.747343 323.490612 16.25387 324.388799 9.253631 C 324.388799 8.080375 324.001456 7.058689 323.22677 6.194184 C 322.463312 5.32968 321.492148 4.897428 320.313279 4.897428 C 319.403865 4.897428 318.573043 5.166884 317.820812 5.711409 C 317.074195 6.255935 316.546511 6.980097 316.220918 7.889511 C 315.811121 9.208722 315.631483 10.325841 315.670779 11.235254 C 315.216072 14.227337 314.879252 21.424054 314.66032 32.825404 Z M 335.498239 16.074232 C 336.132583 16.074232 336.738858 15.911436 337.328293 15.591457 C 338.602595 15.046932 339.242552 14.917818 339.242552 15.192887 C 339.197643 15.782322 339.175188 16.686122 339.175188 17.904287 C 339.175188 20.812164 339.31553 23.495496 339.5906 25.95428 C 340.398967 34.262502 340.876128 43.00859 341.022084 52.192544 C 341.022084 53.275981 341.381358 54.219076 342.105521 55.016217 C 342.835297 55.807743 343.722256 56.273677 344.766397 56.414019 C 345.086376 57.138181 345.608447 57.744457 346.326996 58.244073 C 347.062386 58.743689 347.831458 58.996304 348.639825 58.996304 C 349.785013 58.996304 350.76179 58.575279 351.570158 57.727616 C 352.389752 56.896794 352.79955 55.908789 352.79955 54.769215 C 352.79955 54.460464 352.704118 50.951924 352.518867 44.254824 C 352.339229 37.546496 352.249411 31.287261 352.249411 25.471505 C 352.249411 21.379144 352.479571 17.747104 352.934278 14.575384 L 355.875838 14.84484 C 355.875838 14.889749 356.218271 14.732567 356.891911 14.378906 C 357.571164 14.014018 358.256031 13.491947 358.957739 12.812694 C 359.66506 12.127827 360.018721 11.437346 360.018721 10.752479 C 360.018721 8.798924 359.238422 7.552691 357.67221 7.008166 C 356.111611 6.46364 353.506872 6.194184 349.869218 6.194184 L 346.063154 6.194184 C 343.924348 6.194184 342.054998 6.261548 340.455104 6.390663 C 338.872051 6.525391 337.328293 6.783619 335.829445 7.176576 C 334.33621 7.563918 333.185409 8.142126 332.388269 8.922425 C 331.602356 9.685883 331.2094 10.662661 331.2094 11.847144 C 331.2094 13.070922 331.636038 14.075768 332.489315 14.878522 C 333.353819 15.675662 334.358665 16.074232 335.498239 16.074232 Z M 335.498239 16.074232 " stroke="#000000" stroke-width="4.685058" stroke-opacity="1" stroke-miterlimit="4"/></g></svg>