<svg xmlns="http://www.w3.org/2000/svg" viewBox="0 0 3000 3000" width="3000" height="3000"><g transform="translate(372.0 418.0) rotate(0.0 1136.0 1091.0) scale(1.9972467531554212 1.9948255213332968)"><svg width="1137.566" height="1093.83" viewBox="0 0 1137.566 1093.83"><linearGradient id="a" gradientUnits="userSpaceOnUse" x1="8" x2="1129.566" y1="546.915" y2="546.915"><stop offset="0" stop-color="#deeafe"/><stop offset="1" stop-color="#e9f1fe"/></linearGradient><path d="M8 8h1121.566v1077.83H8z" fill="url(#a)"/><path d="M1137.566 1093.83H0V0h1137.566zM16 1077.83h1105.566V16H16z" fill="#d6d7d8"/><g fill="#fff"><path d="m667.539 1085.937-189.075.106V586.055l189.075.106zM142.043 935.442l-126.256 1.254-.998-250.54L44 661.776v-68.475l95.745-47.826a1.588 1.588 0 0 1 2.298 1.421zm180.547-51.371-158.043.974V443.397l158.043-.974zm574.464 201.759H691.097V473.295a2.547 2.547 0 0 1 2.547-2.547h200.862a2.547 2.547 0 0 1 2.547 2.547v612.535z"/><path d="M893.5 606.444H743.224V395.958a2.547 2.547 0 0 1 2.547-2.547h145.182a2.547 2.547 0 0 1 2.547 2.547zm236.066 336.442H897.054v-256.73l39.289-34.663.074-151.367 76.015-.355 87.866 42.255v115.515l29.268 21.439zM457.73 1077.898l-214.161 8.145V325.667l214.161 93.807z"/></g><path d="M1121.577 1077.898H15.787V852.057l1105.847-.011z" fill="#efefef"/><path d="M1137.566 1093.83H0V0h1137.566zM16 1077.83h1105.566V16H16z" fill="#e4e4e8"/><path d="M235.569 8h16v833.663h-16zm649.931.652h16v837.83h-16z" fill="#e4e4e8"/><path d="M8 163.958h1121.566v16H8zm0 672.754h1121.566v16H8z" fill="#e4e4e8"/></svg></g><g transform="translate(432.0 1872.0) rotate(0.0 250.0 108.0) translate(194.0 2.0) scale(8.654412019247411 8.692502716407098)"><svg width="11.786" height="24.159" viewBox="22.416 0.23 11.786 24.159"><linearGradient id="b" gradientUnits="userSpaceOnUse" x1="0" x2="57.774" y1="15.961" y2="15.961"><stop offset="0" stop-color="#FFF"/><stop offset="1" stop-color="#FFF"/></linearGradient><path d="M31.05 17.661h-4.327a5.873 5.873 0 0 1-5.873-5.873V5.873A5.874 5.874 0 0 1 26.723 0h4.327a5.873 5.873 0 0 1 5.873 5.873v5.916a5.872 5.872 0 0 1-5.873 5.872z" fill="#FFF"/><path d="M57.774 24.849H0C0 15.032 11.033 7.073 20.851 7.073h16.072c9.817 0 20.851 7.959 20.851 17.776z" fill="url(#b)"/></svg></g><g transform="translate(138.0 1510.0) rotate(0.0 413.0 657.0) scale(4.024497790424034 4.0123240027970235)"><svg width="205.243" height="327.491" viewBox="0 0 205.243 327.491"><linearGradient id="c" gradientTransform="translate(0 -78)" gradientUnits="userSpaceOnUse" x1="52.519" x2="53.122" y1="404.904" y2="227.781"><stop offset="0" stop-color="#A1C3FC"/><stop offset="1" stop-color="#8FB8F8"/></linearGradient><linearGradient xmlns:xlink="http://www.w3.org/1999/xlink" id="d" x1="-27.068" x2="101.31" xlink:href="#c" y1="74.456" y2="257.148"/><linearGradient xmlns:xlink="http://www.w3.org/1999/xlink" id="e" x1="157.362" x2="59.642" xlink:href="#c" y1="255.186" y2="207.014"/><linearGradient xmlns:xlink="http://www.w3.org/1999/xlink" id="f" x1="156.304" x2="53.244" xlink:href="#c" y1="191.63" y2="140.826"/><linearGradient xmlns:xlink="http://www.w3.org/1999/xlink" id="g" x1="112.545" x2="270.832" xlink:href="#c" y1="100.664" y2="325.919"/><path d="M54.226 163.605 37.243 327.491h6.282l24.817-161.774-5.203-6.74z" fill="url(#c)"/><path d="M68.724 165.941h-14.63L0 0h13.357z" fill="url(#d)"/><path d="m186.751 152.012-137.059.425 4.402 13.504h133.657z" fill="url(#e)"/><path d="m189.913 87.318-147.198.284-3.868 11.006h151.066z" fill="url(#f)"/><path d="M198.961 327.491h6.282L181.507 94.953l-17.716-2.478z" fill="url(#g)"/></svg></g><g transform="translate(1130.0 1746.0) rotate(0.0 396.0 171.0) scale(13.708588638487901 13.763129300977907)"><svg width="57.774" height="24.849" viewBox="0 0 57.774 24.849"><linearGradient id="h" gradientUnits="userSpaceOnUse" x1="0" x2="57.774" y1="15.961" y2="15.961"><stop offset="0" stop-color="#FFF"/><stop offset="1" stop-color="#FFF"/></linearGradient><path d="M31.05 17.661h-4.327a5.873 5.873 0 0 1-5.873-5.873V5.873A5.874 5.874 0 0 1 26.723 0h4.327a5.873 5.873 0 0 1 5.873 5.873v5.916a5.872 5.872 0 0 1-5.873 5.872z" fill="#FFF"/><path d="M57.774 24.849H0C0 15.032 11.033 7.073 20.851 7.073h16.072c9.817 0 20.851 7.959 20.851 17.776z" fill="url(#h)"/></svg></g><g transform="translate(1422.0 1410.0) rotate(0.0 99.0 199.0) scale(3.0653476382889786 3.0977584059775842)"><svg width="64.593" height="128.48" viewBox="0 0 64.593 128.48"><linearGradient id="i" gradientUnits="userSpaceOnUse" x1="32.18" x2="32.18" y1="26.067" y2="47.831"><stop offset=".129" stop-color="#428dfc"/><stop offset=".999" stop-color="#1d72d8"/></linearGradient><linearGradient xmlns:xlink="http://www.w3.org/1999/xlink" id="k" x1="32.296" x2="32.296" xlink:href="#i" y1="38.845" y2="116.643"/><radialGradient id="j" cx="21.326" cy="21.38" gradientUnits="userSpaceOnUse" r="18.001"><stop offset="0" stop-color="#89B3F4"/><stop offset="1" stop-color="#A1C3FC"/></radialGradient><radialGradient xmlns:xlink="http://www.w3.org/1999/xlink" id="l" cx="445.944" cy="-2668.634" gradientTransform="matrix(.965 .261 -.261 .965 -1085.455 2487.536)" r="15.002" xlink:href="#j"/><path d="M42.795 51.142H21.787l-4.33-21.806h29.446z" fill="url(#i)"/><path d="M21.528 123.972h21.536v4.508H21.528z" fill="#1d72d8"/><path d="M32.3 128.48C14.46 128.48 0 97.049 0 79.212v-1.219a27.464 27.464 0 0 1 27.464-27.464h9.665a27.464 27.464 0 0 1 27.464 27.464v1.219c0 17.837-14.46 49.268-32.293 49.268z" fill="url(#k)"/><g fill="url(#j)"><path d="M3.839 31.96a3.546 3.546 0 0 0 4.7 1.239c-.1.119-.185.233-.245.317a3.568 3.568 0 0 0 5.819 4.129c.033-.046.081-.124.121-.184a3.525 3.525 0 0 0 2.637 3.857 3.567 3.567 0 0 0 4.312-2.62c.467-1.914 1.717-13.784-.2-14.25a9 9 0 0 1-2.373-1.607C17.582 21.164 6.678 26.016 5 27.051a3.567 3.567 0 0 0-1.161 4.909z"/><path d="M5.407 8.18a3.546 3.546 0 0 0 .49 4.839 7.096 7.096 0 0 0-.382-.118A3.568 3.568 0 0 0 3.69 19.8c.054.014.144.032.214.048a3.525 3.525 0 0 0-2.686 3.824 3.566 3.566 0 0 0 3.966 3.118c1.956-.234 13.51-3.229 13.275-5.184a8.994 8.994 0 0 1 .673-2.786c1.207-1.557-7.163-10.066-8.72-11.273a3.567 3.567 0 0 0-5.005.633z"/><path d="M29.662 2.256a3.546 3.546 0 0 0-4.553 1.712c.01-.154.016-.3.016-.4a3.567 3.567 0 0 0-7.134 0c0 .057 0 .148.008.22a3.526 3.526 0 0 0-4.384-1.619 3.567 3.567 0 0 0-2 4.632c.727 1.831 6.576 12.235 8.407 11.508a8.979 8.979 0 0 1 2.865-.063c1.814.769 7.9-9.5 8.668-11.312a3.568 3.568 0 0 0-1.893-4.678z"/><path d="M41.932 24.256a3.545 3.545 0 0 0-2.891-3.911c.15-.033.29-.066.389-.094a3.567 3.567 0 1 0-1.951-6.863c-.054.016-.141.046-.209.068a3.526 3.526 0 0 0 .358-4.656 3.566 3.566 0 0 0-5-.657c-1.562 1.2-9.97 9.672-8.77 11.234a8.962 8.962 0 0 1 .844 2.738c-.244 1.956 11.3 5 13.252 5.244a3.567 3.567 0 0 0 3.978-3.103z"/><path d="M26.63 41.3a3.547 3.547 0 0 0 2.53-4.155c.087.127.171.244.234.325a3.567 3.567 0 1 0 5.617-4.4c-.035-.045-.1-.113-.142-.169a3.524 3.524 0 0 0 4.45-1.427 3.566 3.566 0 0 0-1.281-4.88c-1.7-.994-12.721-5.579-13.714-3.878a8.968 8.968 0 0 1-2.217 1.816c-1.9.513-.363 12.349.15 14.251A3.567 3.567 0 0 0 26.63 41.3z"/></g><path d="M25.444 19.922a2.525 2.525 0 0 0 .59-1.578 2.554 2.554 0 0 0-4.852-1.135 2.557 2.557 0 1 0-4.132 2.906 2.566 2.566 0 1 0 1.927 4.756 2.52 2.52 0 0 0 5-.1 2.5 2.5 0 0 0 .7.142 2.573 2.573 0 0 0 2.572-2.572 2.541 2.541 0 0 0-1.805-2.419z" fill="#1D72D8"/><path d="M28.9 35.845a2.628 2.628 0 0 0 3.541.679 5.57 5.57 0 0 0-.165.247 2.644 2.644 0 0 0 4.512 2.759c.022-.036.054-.095.08-.142a2.614 2.614 0 0 0 2.146 2.72 2.644 2.644 0 0 0 3.056-2.156c.249-1.439.573-10.281-.866-10.529a6.673 6.673 0 0 1-1.836-1.069c-.85-1.188-8.669 2.952-9.856 3.8a2.644 2.644 0 0 0-.612 3.691z" fill="url(#l)"/><path d="M28.862 18.179a2.627 2.627 0 0 0 .607 3.554 5.5 5.5 0 0 0-.289-.067 2.644 2.644 0 0 0-1 5.193c.041.008.108.017.161.025a2.615 2.615 0 0 0-1.794 2.964 2.644 2.644 0 0 0 3.091 2.105c1.435-.272 9.829-3.07 9.556-4.5a6.647 6.647 0 0 1 .357-2.094c.814-1.213-5.806-7.082-7.019-7.9a2.643 2.643 0 0 0-3.67.72z" fill="url(#l)"/><path d="M46.5 12.572a2.627 2.627 0 0 0-3.28 1.5c0-.114 0-.221-.009-.3a2.644 2.644 0 1 0-5.276.361c0 .042.011.109.017.162a2.613 2.613 0 0 0-3.324-.976 2.644 2.644 0 0 0-1.245 3.527c.63 1.317 5.482 8.716 6.8 8.086a6.641 6.641 0 0 1 2.117-.192c1.381.476 5.361-7.425 5.838-8.8a2.644 2.644 0 0 0-1.638-3.368z" fill="url(#l)"/><path d="M56.687 28.222a2.628 2.628 0 0 0-2.336-2.746c.109-.032.211-.064.283-.09a2.644 2.644 0 0 0-1.79-4.976c-.039.014-.1.041-.151.06a2.614 2.614 0 0 0 .029-3.464 2.643 2.643 0 0 0-3.732-.232c-1.095.966-6.885 7.657-5.918 8.751a6.652 6.652 0 0 1 .762 1.983c-.081 1.458 8.608 3.127 10.066 3.208a2.644 2.644 0 0 0 2.787-2.494z" fill="url(#l)"/><path d="M46.232 41.6a2.627 2.627 0 0 0 1.66-3.2c.071.089.139.172.19.229a2.645 2.645 0 0 0 3.932-3.538c-.028-.031-.076-.078-.113-.117a2.612 2.612 0 0 0 3.218-1.28 2.645 2.645 0 0 0-1.194-3.545c-1.308-.649-9.69-3.482-10.338-2.174a6.641 6.641 0 0 1-1.548 1.454c-1.381.476.356 9.152.831 10.532a2.644 2.644 0 0 0 3.362 1.639z" fill="url(#l)"/><path d="M44.274 25.85a1.866 1.866 0 0 0 .356-1.2 1.893 1.893 0 0 0-3.645-.594 1.9 1.9 0 1 0-2.909 2.358 1.9 1.9 0 1 0 1.665 3.42 1.868 1.868 0 0 0 3.7-.326 1.851 1.851 0 0 0 .527.069 1.908 1.908 0 0 0 1.773-2.032 1.886 1.886 0 0 0-1.467-1.695z" fill="#1D72D8"/></svg></g><g transform="translate(1046.0 1806.0) rotate(0.0 476.0 508.0) scale(2.0 2.0007286117976033)"><svg width="476" height="507.815" viewBox="0 0 476 507.815"><g><g><path style="fill:#23286b" d="M20.481 0h434.573c10.678 0 19.925 7.986 20.864 18.623 1.072 12.151-8.473 22.346-20.398 22.346H251.115l1.222 389.541c1.176 31.034 57.823 46.178 74.176 49.909 2.334.532 4.701.83 7.082 1.071 13.344 1.355 23.757 12.624 23.757 26.326H121.091c0-13.701 10.413-24.971 23.757-26.326 2.677-.272 5.343-.571 7.981-1.101 17.557-3.525 72.931-17.306 73.277-50.971l-1.222-388.449H20.946c-10.677 0-19.925-7.986-20.865-18.622C-.991 10.196 8.554 0 20.481 0z"/></g></g></svg></g><g transform="translate(780.0 204.0) rotate(0.0 716.0 484.0) scale(2.0010564236426496 2.0036263981917686)"><svg width="715.622" height="483.124" viewBox="0 0 715.622 483.124"><path d="M707.769 20.447H7.851A7.85 7.85 0 0 1 0 12.584L.007 7.84A7.851 7.851 0 0 1 7.858 0h699.913a7.85 7.85 0 0 1 7.851 7.855l-.002 4.745a7.85 7.85 0 0 1-7.851 7.847z" fill="#e4e4e8"/><path d="M188.882 10.224h7.533v251.465h-7.533z" fill="#e4e4e8"/><ellipse cx="192.649" cy="282.957" fill="#FFF" rx="32.156" ry="51.16"/><path d="M519.207 10.224h7.533v330.743h-7.533z" fill="#e4e4e8"/><ellipse cx="522.974" cy="334.117" fill="#FFF" rx="32.156" ry="51.16"/><path d="M354.045 10.224h7.533v370.382h-7.533z" fill="#e4e4e8"/><ellipse cx="357.811" cy="431.964" fill="#FFF" rx="32.156" ry="51.16"/></svg></g><g transform="translate(2870.0 1510.0) rotate(0.0 -413.0 657.0) scale(-4.024497790424034 4.0123240027970235)"><svg width="205.243" height="327.491" viewBox="0 0 205.243 327.491"><linearGradient id="m" gradientTransform="translate(0 -78)" gradientUnits="userSpaceOnUse" x1="52.519" x2="53.122" y1="404.904" y2="227.781"><stop offset="0" stop-color="#A1C3FC"/><stop offset="1" stop-color="#8FB8F8"/></linearGradient><linearGradient xmlns:xlink="http://www.w3.org/1999/xlink" id="n" x1="-27.068" x2="101.31" xlink:href="#m" y1="74.456" y2="257.148"/><linearGradient xmlns:xlink="http://www.w3.org/1999/xlink" id="o" x1="157.362" x2="59.642" xlink:href="#m" y1="255.186" y2="207.014"/><linearGradient xmlns:xlink="http://www.w3.org/1999/xlink" id="p" x1="156.304" x2="53.244" xlink:href="#m" y1="191.63" y2="140.826"/><linearGradient xmlns:xlink="http://www.w3.org/1999/xlink" id="q" x1="112.545" x2="270.832" xlink:href="#m" y1="100.664" y2="325.919"/><path d="M54.226 163.605 37.243 327.491h6.282l24.817-161.774-5.203-6.74z" fill="url(#m)"/><path d="M68.724 165.941h-14.63L0 0h13.357z" fill="url(#n)"/><path d="m186.751 152.012-137.059.425 4.402 13.504h133.657z" fill="url(#o)"/><path d="m189.913 87.318-147.198.284-3.868 11.006h151.066z" fill="url(#p)"/><path d="M198.961 327.491h6.282L181.507 94.953l-17.716-2.478z" fill="url(#q)"/></svg></g></svg>