<?xml version="1.0" encoding="utf-8"?>
<!-- Generator: Adobe Illustrator 26.0.3, SVG Export Plug-In . SVG Version: 6.00 Build 0)  -->
<svg version="1.0" id="katman_1"  xmlns="http://www.w3.org/2000/svg" xmlns:xlink="http://www.w3.org/1999/xlink" x="0px" y="0px"
	 viewBox="0 0 600 450" style="enable-background:new 0 0 600 450;" xml:space="preserve">
<style type="text/css">
	.st0{fill:#F6F6F6;}
	.st1{fill:#582914;}
</style>
<g id="logo_x2F_hungerstation-shadow" transform="translate(7.000000, 6.000000)">
	<g id="hungerstation">
		<path class="st0" d="M495.6,219.5c1.6-3.8,1.4-8.1-0.6-11.8l-8.9-16c1.1-1.3,2.1-2.8,3-4.3c3.4-5.6,5.1-11.8,5.1-18.4
			c0-10.6-3.9-19.8-11.4-26.9c-7.2-6.8-16.5-10.4-26.9-10.4h-27.6h-8.7h-43.9c-5.4,0-10,3.2-12.2,7.8c-3.8-2.8-8.1-5.1-12.9-6.7
			c-7.9-2.7-16.2-3.4-24.7-2c-8.8,1.5-16.5,4.8-22.9,9.9c-1.8-5.3-6.8-9-12.7-9h-17.6c-5.3,0-9.9,3.1-12.1,7.6l-1.3-1.9
			c-2.5-3.6-6.6-5.7-11-5.7h-13.7h-10.6h-17.7c-3.8,0-7.2,1.6-9.7,4.1c-2.4-2.5-5.9-4.1-9.7-4.1h-17.7c-2,0-8.9,0.2-10.7,0.2h-17.5
			c-3.8,0-7.2,1.6-9.7,4.1c-2.4-2.5-5.9-4.1-9.7-4.1h-17.6c-7.4,0-13.4,6-13.4,13.4V214c0,5.2,2.9,9.6,7.2,11.9
			c-3.6,5.4-5.5,11.8-5.5,18.8c0,9.3,3.1,15.8,6.6,20.2l-2.9,1.7c-5.6,3.3-8.1,10.1-5.9,16.2c2.9,8.1,8.1,14.5,15.4,19.2
			c7,4.5,15.5,6.8,25.4,6.8c11,0,20.2-2.9,27.4-8.6c2.5-2,4.6-4.2,6.4-6.7v0.4c0,7.4,6,13.4,13.4,13.4c0,0,24.1,0.2,25.9,0.2
			l19.4-0.1c5.9,0,11.1-3.9,12.8-9.6l0.9-2.8l2-0.5l1.4,2.9c1.8,5.5,7,9.9,12.7,9.9l18,0.4c2.2,0,9-0.2,10.6-0.2l18-0.3
			c5.1,0,9.6-2.9,11.9-7.2c2.2,4.3,6.7,7.2,11.9,7.2h17.7c6,0,11-3.9,12.8-9.3c8.8,7.2,19.3,10.8,31.2,10.8
			c11.2,0,21.1-3.2,29.6-9.5c2.1,4.7,6.8,8,12.3,8h17.7c5.3,0,9.9-3.1,12.1-7.6l1.3,1.9c2.5,3.6,6.6,5.7,11,5.7h13.6
			c7.4,0,13.4-6,13.4-13.4v-69C496.7,222.9,496.3,221.1,495.6,219.5z"/>
		<g>
			<path class="st1" d="M146.3,257.7c-2.4-1.6-4.7-2.8-6.8-3.5c-2.1-0.7-4.8-1.7-8-2.9c-4.7-1.4-7.8-2.6-9.4-3.7
				c-1.6-1.1-2.4-2.3-2.4-3.9c0-1.3,0.5-2.4,1.6-3.3c1.1-0.9,2.7-1.3,4.8-1.3c5,0,8.6,2.6,10.8,7.7l14.8-8.7
				c-2.4-5.1-5.8-9-10.3-11.7c-4.5-2.7-9.6-4-15.4-4c-6.8,0-12.5,2-17.1,5.9c-4.6,3.9-6.9,9.1-6.9,15.5c0,5.9,1.8,10.5,5.5,13.9
				c3.7,3.3,8.7,5.9,15,7.7c4.5,1.3,7.3,2.2,8.7,2.7c3.1,1.2,4.7,2.9,4.7,4.9c0,3.1-2.7,4.6-8.1,4.6c-6.5,0-11-3.1-13.6-9.2
				L99,277.3c1.9,5.3,5.3,9.4,10.1,12.5c4.8,3.1,10.8,4.6,18.1,4.6c7.9,0,14.2-1.9,19-5.7c4.8-3.8,7.2-9.1,7.2-15.9
				c0-3.4-0.6-6.4-1.8-8.9C150.5,261.4,148.7,259.3,146.3,257.7z"/>
			<polygon class="st1" points="211,222.4 159.2,222.4 159.2,239.5 176.2,239.5 176.2,291.5 193.9,291.5 193.9,239.5 211,239.5 			
				"/>
			<polygon class="st1" points="265.6,239.5 282.7,239.5 282.7,291.5 300.3,291.5 300.3,239.5 317.4,239.5 317.4,222.4 265.6,222.4 
							"/>
			<rect x="321.1" y="223.2" class="st1" width="17.7" height="69"/>
			<path class="st1" d="M385.1,223.2c-10.1,0-18.7,3.5-25.7,10.4c-7,6.9-10.5,15.5-10.5,25.6c0,10.1,3.5,18.7,10.5,25.6
				c7,6.9,15.6,10.4,25.7,10.4c10.1,0,18.7-3.5,25.7-10.4c7-6.9,10.5-15.5,10.5-25.6c0-10.1-3.5-18.7-10.5-25.6
				C403.8,226.6,395.2,223.2,385.1,223.2z M398.4,272.6c-3.6,3.5-8,5.3-13.3,5.3c-5.3,0-9.8-1.8-13.3-5.3c-3.6-3.5-5.3-8-5.3-13.5
				c0-5.5,1.8-9.9,5.3-13.5c3.6-3.5,8-5.3,13.3-5.3c5.3,0,9.8,1.8,13.3,5.3c3.6,3.5,5.3,8,5.3,13.5
				C403.7,264.6,401.9,269.1,398.4,272.6z"/>
			<polygon class="st1" points="465.6,223.2 465.6,257.9 441.2,223.2 427.5,223.2 427.5,292.2 445.2,292.2 445.2,257.5 469.6,292.2 
				483.2,292.2 483.2,223.2 			"/>
			<path class="st1" d="M223,223.2l-22.2,69.8h19.3l2.5-8.5l1.5-4.9l20.4-3.7l3,9.1l2.6,8h18.4l-23.1-69.8H223z M229.1,262.9
				l5.6-19.1l5.1,17.3L229.1,262.9z"/>
			<polygon class="st1" points="140.5,170.1 121.2,173.6 121.2,168.2 121.2,144.5 103.6,144.5 103.6,213.2 121.2,213.2 121.2,189.4 
				140.5,185.9 140.5,188.6 140.5,213.2 158,213.2 158,144.5 140.5,144.5 			"/>
			<path class="st1" d="M195.8,215.1c8,0,14.6-2.2,19.7-6.6c5.1-4.4,7.6-10.3,7.6-17.6v-46.4h-17.7v44.7c0,5.8-3.2,8.7-9.7,8.7
				c-6.4,0-9.7-2.9-9.7-8.7v-44.7h-17.7v46.4c0,7.3,2.5,13.2,7.6,17.6C181.2,212.9,187.7,215.1,195.8,215.1z"/>
			<polygon class="st1" points="250.9,178.9 275.2,213.6 288.9,213.6 288.9,144.5 271.3,144.5 271.3,179.3 246.9,144.5 233.2,144.5 
				233.2,213.6 250.9,213.6 			"/>
			<path class="st1" d="M363.7,202.7c5.2-7.2,7-15.8,5.4-25.8l-1.1-6.9l-34.4,5.7l2.5,15l16.6-2.7c-1.5,6.4-6.3,10.2-14.2,11.5
				c-6.2,1-11.3,0-15.3-3.1c-4-3.1-6.4-7.2-7.3-12.5c-0.9-5.5,0.1-10.2,2.9-14.3c2.9-4.1,7-6.6,12.4-7.4c3.3-0.5,6.4-0.4,9.2,0.5
				c2.8,0.9,5.1,2.3,6.8,4.2l13.4-10.9c-3.8-4.2-8.5-7.4-14.3-9.3c-5.8-2-11.8-2.5-18.2-1.4c-10.1,1.7-17.9,6.5-23.6,14.5
				c-5.7,8-7.7,17-6.1,27c1.6,10,6.5,17.8,14.4,23.5c8,5.7,17.3,7.7,27.9,5.9C350.9,214.3,358.5,209.9,363.7,202.7z"/>
			<polygon class="st1" points="419.8,199.9 393.1,199.9 393.1,189.8 416.8,189.8 416.8,173.5 393.1,173.5 393.1,163.9 419.3,163.9 
				419.3,147.4 375.4,147.4 375.4,216.5 419.8,216.5 			"/>
			<path class="st1" d="M444.7,195.3l6.3-1.1l12,22.3H482l-14.2-25.6c3.6-2,6.5-4.8,8.6-8.2c2.1-3.5,3.2-7.3,3.2-11.4
				c0-6.9-2.4-12.6-7.2-17.1c-4.8-4.5-10.7-6.8-17.7-6.8H427v69.1h17.7V195.3z M444.7,163.7h9.8c2.2,0,3.9,0.7,5.3,2.2
				c1.4,1.4,2.1,3.3,2.1,5.6c0,2.3-0.7,4.2-2.1,5.6c-1.4,1.4-3.9,2.4-5.6,2.5l-9.5,1.2V163.7z"/>
		</g>
	</g>
</g>
</svg>
